<svg xmlns="http://www.w3.org/2000/svg" width="23" height="18.03" viewBox="0 0 23 18.03">
  <defs>
    <style>
      .cls-1 {
        fill: #fff;
        fill-rule: evenodd;
      }
    </style>
  </defs>
  <path id="arrow" class="cls-1" d="M1819,1846h21a1,1,0,0,1,0,2h-21A1,1,0,0,1,1819,1846Zm13.73-7.72,7.95,7.96a1.018,1.018,0,0,1-1.44,1.44l-7.95-7.95a1.026,1.026,0,0,1,0-1.45A1.014,1.014,0,0,1,1832.73,1838.28Zm0,17.44,7.95-7.96a1.018,1.018,0,0,0-1.44-1.44l-7.95,7.95A1.022,1.022,0,0,0,1832.73,1855.72Z" transform="translate(-1818 -1838)"/>
</svg>
