<svg xmlns="http://www.w3.org/2000/svg" width="23" height="18.03" viewBox="0 0 23 18.03">
  <defs>
    <style>
      .cls-1 {
        fill: #0096ff;
        fill-rule: evenodd;
      }
    </style>
  </defs>
  <path id="arrow_hover" class="cls-1" d="M74,1846H95a1,1,0,0,1,0,2H74A1,1,0,0,1,74,1846Zm7.269-7.72-7.952,7.96a1.02,1.02,0,1,0,1.446,1.44l7.952-7.95A1.024,1.024,0,0,0,81.269,1838.28Zm0,17.44-7.952-7.96a1.02,1.02,0,1,1,1.446-1.44l7.952,7.95a1.027,1.027,0,0,1,0,1.45A1.039,1.039,0,0,1,81.269,1855.72Z" transform="translate(-73 -1838)"/>
</svg>
