<?xml version="1.0" encoding="utf-8"?>
<!-- Generator: Adobe Illustrator 16.0.0, SVG Export Plug-In . SVG Version: 6.00 Build 0)  -->
<!DOCTYPE svg PUBLIC "-//W3C//DTD SVG 1.1//EN" "http://www.w3.org/Graphics/SVG/1.1/DTD/svg11.dtd">
<svg version="1.1" id="Layer_1" xmlns="http://www.w3.org/2000/svg" xmlns:xlink="http://www.w3.org/1999/xlink" x="0px" y="0px"
	 width="140.5px" height="141px" viewBox="186.392 8.492 140.5 141" enable-background="new 186.392 8.492 140.5 141"
	 xml:space="preserve">
<g transform="translate(0,-952.36218)">
	<path fill="none" stroke="#FFFFFF" stroke-width="2" d="M263.531,1090.535c0,0-14.564,7.785-14.564,7.788
		c0.005-1.124,0.06-13.729,0.064-14.566C249.029,1083.756,263.531,1090.533,263.531,1090.535L263.531,1090.535z"/>
	<path fill="none" stroke="#FFFFFF" stroke-width="2" d="M197.035,1038.606c0,0-7.785-14.567-7.787-14.567
		c1.123,0.008,13.728,0.062,14.565,0.064C203.813,1024.103,197.04,1038.606,197.035,1038.606L197.035,1038.606z"/>
	<path fill="none" stroke="#FFFFFF" stroke-width="2" d="M248.964,972.11c0,0,14.564-7.784,14.564-7.787
		c-0.005,1.124-0.06,13.729-0.062,14.565C263.466,978.888,248.964,972.113,248.964,972.11L248.964,972.11z"/>
	<path fill="none" stroke="#FFFFFF" stroke-width="2" d="M315.46,1024.039c0,0,7.784,14.567,7.787,14.567
		c-1.122,0-13.729-0.06-14.564-0.064C308.683,1038.542,315.456,1024.039,315.46,1024.039z"/>
	<path fill="none" stroke="#FFFFFF" stroke-width="2.9268" stroke-linecap="round" stroke-linejoin="round" d="M248.76,1090.553
		c-22.785-2.879-41.9-18.571-49.165-40.359"/>
	<path fill="none" stroke="#FFFFFF" stroke-width="2.9268" stroke-linecap="round" stroke-linejoin="round" d="M197.076,1023.255
		c3.097-22.754,18.967-41.718,40.818-48.775"/>
	<path fill="none" stroke="#FFFFFF" stroke-width="2.9268" stroke-linecap="round" stroke-linejoin="round" d="M315.539,1038.42
		c-2.755,22.983-18.548,42.305-40.525,49.581"/>
	<path fill="none" stroke="#FFFFFF" stroke-width="2.9268" stroke-linecap="round" stroke-linejoin="round" d="M263.029,971.975
		c23.18,2.649,42.693,18.556,49.962,40.725"/>
</g>
</svg>
