<svg xmlns="http://www.w3.org/2000/svg" width="30.375" height="29.84" viewBox="0 0 30.375 29.84">
  <metadata><?xpacket begin="﻿" id="W5M0MpCehiHzreSzNTczkc9d"?>
<x:xmpmeta xmlns:x="adobe:ns:meta/" x:xmptk="Adobe XMP Core 5.6-c140 79.160451, 2017/05/06-01:08:21        ">
   <rdf:RDF xmlns:rdf="http://www.w3.org/1999/02/22-rdf-syntax-ns#">
      <rdf:Description rdf:about=""/>
   </rdf:RDF>
</x:xmpmeta>
                                                                                                    
                                                                                                    
                                                                                                    
                                                                                                    
                                                                                                    
                                                                                                    
                                                                                                    
                                                                                                    
                                                                                                    
                                                                                                    
                                                                                                    
                                                                                                    
                                                                                                    
                                                                                                    
                                                                                                    
                                                                                                    
                                                                                                    
                                                                                                    
                                                                                                    
                                                                                                    
                           
<?xpacket end="w"?></metadata>
<defs>
    <style>
      .cls-1 {
        fill: #0e1a35;
        fill-rule: evenodd;
      }
    </style>
  </defs>
  <path id="calendar" class="cls-1" d="M527,8417.39a2.63,2.63,0,0,0-2.565-2.1,0.529,0.529,0,0,0-.524.53,0.52,0.52,0,0,0,.524.52,1.57,1.57,0,1,1,0,3.14,0.52,0.52,0,0,0-.524.52,0.529,0.529,0,0,0,.524.53,2.621,2.621,0,0,0,2.565-2.1h6.86v4.71H505.587v-4.71h8.9a0.52,0.52,0,1,0,0-1.04h-0.951a1.567,1.567,0,1,1,1.474,2.09,0.52,0.52,0,0,0-.523.52,0.528,0.528,0,0,0,.523.53,2.62,2.62,0,1,0-2.565-3.14H504.54v27.73h30.369v-27.73H527Zm6.86,26.68H505.587v-19.88h28.275v19.88Zm-15.708-27.73a1.57,1.57,0,1,1,0,3.14,0.52,0.52,0,0,0-.524.52,0.529,0.529,0,0,0,.524.53,2.62,2.62,0,0,0,0-5.24,0.529,0.529,0,0,0-.524.53A0.52,0.52,0,0,0,518.154,8416.34Zm3.141,0a1.57,1.57,0,1,1,0,3.14,0.52,0.52,0,0,0-.523.52,0.528,0.528,0,0,0,.523.53,2.62,2.62,0,0,0,0-5.24,0.528,0.528,0,0,0-.523.53A0.52,0.52,0,0,0,521.295,8416.34Zm-9.948,16.22a3.14,3.14,0,1,0-3.142-3.14A3.146,3.146,0,0,0,511.347,8432.56Zm0-5.23a2.09,2.09,0,1,1-2.095,2.09A2.1,2.1,0,0,1,511.347,8427.33Zm8.378,5.23a3.14,3.14,0,1,0-3.142-3.14A3.145,3.145,0,0,0,519.725,8432.56Zm0-5.23a2.09,2.09,0,1,1-2.1,2.09A2.1,2.1,0,0,1,519.725,8427.33Zm8.377,5.23a3.14,3.14,0,1,0-3.141-3.14A3.145,3.145,0,0,0,528.1,8432.56Zm0-5.23a2.09,2.09,0,1,1-2.094,2.09A2.1,2.1,0,0,1,528.1,8427.33Zm-16.755,13.6a3.14,3.14,0,1,0-3.142-3.14A3.146,3.146,0,0,0,511.347,8440.93Zm0-5.23a2.1,2.1,0,1,1-2.095,2.09A2.1,2.1,0,0,1,511.347,8435.7Zm8.378,5.23a3.14,3.14,0,1,0-3.142-3.14A3.145,3.145,0,0,0,519.725,8440.93Zm0-5.23a2.1,2.1,0,1,1-2.1,2.09A2.1,2.1,0,0,1,519.725,8435.7Zm8.377,4.19a0.52,0.52,0,1,1-.523.52A0.52,0.52,0,0,1,528.1,8439.89Zm-2.094-.53a0.525,0.525,0,1,1-.524.53A0.529,0.529,0,0,1,526.008,8439.36Zm4.189,0a0.525,0.525,0,1,1-.524.53A0.528,0.528,0,0,1,530.2,8439.36Zm0-4.18a0.52,0.52,0,1,1-.524.52A0.52,0.52,0,0,1,530.2,8435.18Zm-4.189,0a0.52,0.52,0,1,1-.524.52A0.52,0.52,0,0,1,526.008,8435.18Zm1.047,1.04a0.529,0.529,0,0,1,.524.53,0.524,0.524,0,0,1-1.047,0A0.528,0.528,0,0,1,527.055,8436.22Zm2.1,0a0.528,0.528,0,0,1,.523.53,0.524,0.524,0,0,1-1.047,0A0.528,0.528,0,0,1,529.15,8436.22Zm-1.048,1.05a0.52,0.52,0,0,1,.524.52,0.524,0.524,0,1,1-1.047,0A0.52,0.52,0,0,1,528.1,8437.27Zm-1.047,1.05a0.52,0.52,0,1,1-.523.52A0.52,0.52,0,0,1,527.055,8438.32Zm2.1,0a0.52,0.52,0,1,1-.524.52A0.52,0.52,0,0,1,529.15,8438.32Zm1.57-1.05a0.52,0.52,0,0,1,.524.52,0.524,0.524,0,1,1-1.047,0A0.52,0.52,0,0,1,530.72,8437.27Zm-5.236,0a0.52,0.52,0,0,1,.524.52,0.524,0.524,0,1,1-1.047,0A0.52,0.52,0,0,1,525.484,8437.27Zm2.618-2.62a0.529,0.529,0,0,1,.524.53,0.524,0.524,0,0,1-1.047,0A0.528,0.528,0,0,1,528.1,8434.65Z" transform="translate(-504.531 -8415.28)"/>
</svg>
