<svg xmlns="http://www.w3.org/2000/svg" width="61" height="64" viewBox="0 0 61 64">
  <metadata><?xpacket begin="﻿" id="W5M0MpCehiHzreSzNTczkc9d"?>
<x:xmpmeta xmlns:x="adobe:ns:meta/" x:xmptk="Adobe XMP Core 5.6-c140 79.160451, 2017/05/06-01:08:21        ">
   <rdf:RDF xmlns:rdf="http://www.w3.org/1999/02/22-rdf-syntax-ns#">
      <rdf:Description rdf:about=""/>
   </rdf:RDF>
</x:xmpmeta>
                           
<?xpacket end="w"?></metadata>
<defs>
    <style>
      .cls-1 {
        fill: #0e1a35;
        fill-rule: evenodd;
      }
    </style>
  </defs>
  <path id="chart" class="cls-1" d="M483.742,6893.5h-2.76v-39.81a3.377,3.377,0,0,0-3.382-3.36h-6.169a3.377,3.377,0,0,0-3.382,3.36v39.81h-7.008v-21.77a3.377,3.377,0,0,0-3.382-3.36H451.49a3.377,3.377,0,0,0-3.382,3.36v21.77H441.1v-11.28a3.377,3.377,0,0,0-3.382-3.36h-6.169a3.377,3.377,0,0,0-3.382,3.36v11.28h-2.909a1.25,1.25,0,1,0,0,2.5h58.484A1.25,1.25,0,1,0,483.742,6893.5Zm-45.159,0h-7.9v-11.28a0.867,0.867,0,0,1,.866-0.86h6.169a0.866,0.866,0,0,1,.865.86v11.28h0Zm19.942,0h-7.9v-21.77a0.861,0.861,0,0,1,.866-0.86h6.169a0.861,0.861,0,0,1,.866.86v21.77Zm19.941,0h-7.9v-39.81a0.867,0.867,0,0,1,.866-0.86H477.6a0.867,0.867,0,0,1,.866.86v39.81Zm2.513-60.18a1.231,1.231,0,0,0-.365-0.95,1.3,1.3,0,0,0-.955-0.37h-7.674a1.25,1.25,0,1,0,0,2.5h4.7l-12.439,12.36-4.69-4.66a1.255,1.255,0,0,0-1.78,0l-22.62,22.47a1.248,1.248,0,0,0,0,1.77,1.28,1.28,0,0,0,1.78,0l21.73-21.59,4.691,4.66a1.26,1.26,0,0,0,1.779,0l13.329-13.24v4.23a1.258,1.258,0,0,0,2.516,0v-7.12C480.982,6833.36,480.98,6833.34,480.979,6833.32Zm-49.173,35.34a1.25,1.25,0,1,1-1.258,1.25A1.254,1.254,0,0,1,431.806,6868.66Z" transform="translate(-424 -6832)"/>
</svg>
