<svg xmlns="http://www.w3.org/2000/svg" xmlns:xlink="http://www.w3.org/1999/xlink" width="24" height="24" viewBox="0 0 24 24"><defs><path id="5tlja" d="M980.002 721.001c6.613 0 11.994 5.384 11.994 12.003 0 6.618-5.381 12.003-11.994 12.003-6.614 0-11.995-5.385-11.995-12.003 0-6.619 5.38-12.003 11.995-12.003zm0 22.07c5.547 0 10.06-4.516 10.06-10.067s-4.513-10.07-10.06-10.07c-5.547 0-10.063 4.516-10.063 10.07 0 5.551 4.516 10.067 10.063 10.067zm3.822-13.895a.969.969 0 0 1 1.367 0c.38.379.38.99 0 1.368l-6.281 6.288a.973.973 0 0 1-1.367 0l-2.73-2.736a.964.964 0 1 1 1.363-1.367l2.05 2.051z"/></defs><g><g transform="translate(-968 -721)"><use fill="#1b1b1b" xlink:href="#5tlja"/></g></g></svg>