<svg xmlns="http://www.w3.org/2000/svg" width="60" height="60" viewBox="0 0 60 60">
  <metadata><?xpacket begin="﻿" id="W5M0MpCehiHzreSzNTczkc9d"?>
<x:xmpmeta xmlns:x="adobe:ns:meta/" x:xmptk="Adobe XMP Core 5.6-c140 79.160451, 2017/05/06-01:08:21        ">
   <rdf:RDF xmlns:rdf="http://www.w3.org/1999/02/22-rdf-syntax-ns#">
      <rdf:Description rdf:about=""/>
   </rdf:RDF>
</x:xmpmeta>
                           
<?xpacket end="w"?></metadata>
<defs>
    <style>
      .cls-1 {
        fill: #0096ff;
        fill-rule: evenodd;
      }
    </style>
  </defs>
  <path class="cls-1" d="M2398.3,1681.03l-30.53,30.83-11.68-12.72a1.091,1.091,0,0,0-1.44-.11,1.107,1.107,0,0,0-.1,1.45l12.5,13.55a0.911,0.911,0,0,0,.72.31h0a0.9,0.9,0,0,0,.71-0.31l31.25-31.55a1.008,1.008,0,0,0-.1-1.45,1.067,1.067,0,0,0-1.33,0h0ZM2351.27,1734h36.89a11.293,11.293,0,0,0,11.27-11.38v-20.59a1.025,1.025,0,1,0-2.05,0v20.59a9.23,9.23,0,0,1-9.22,9.31h-36.89a9.23,9.23,0,0,1-9.22-9.31v-37.24a9.23,9.23,0,0,1,9.22-9.31h33.1a1.035,1.035,0,0,0,0-2.07h-33.1a11.293,11.293,0,0,0-11.27,11.38v37.24A11.293,11.293,0,0,0,2351.27,1734Z" transform="translate(-2340 -1674)"/>
</svg>
