<svg xmlns="http://www.w3.org/2000/svg" xmlns:xlink="http://www.w3.org/1999/xlink" width="60" height="60" viewBox="0 0 60 60"><defs><path id="oi9ea" d="M5176.004 553.002c16.534 0 29.988 13.462 29.988 30.008 0 16.545-13.454 30.008-29.988 30.008-16.535 0-29.987-13.463-29.987-30.008 0-16.546 13.452-30.008 29.987-30.008zm0 55.175c13.869 0 25.15-11.29 25.15-25.167 0-13.878-11.281-25.175-25.15-25.175-13.868 0-25.156 11.291-25.156 25.175 0 13.877 11.288 25.167 25.156 25.167zm9.557-34.738a2.422 2.422 0 0 1 3.418 0 2.414 2.414 0 0 1 0 3.42l-15.704 15.721a2.421 2.421 0 0 1-3.417 0l-6.829-6.84a2.414 2.414 0 0 1 0-3.418 2.412 2.412 0 0 1 3.412 0l5.125 5.129z"/></defs><g><g transform="translate(-5146 -553)"><use fill="#0096ff" xlink:href="#oi9ea"/></g></g></svg>