<svg xmlns="http://www.w3.org/2000/svg" width="61" height="76" viewBox="0 0 61 76">
  <metadata><?xpacket begin="﻿" id="W5M0MpCehiHzreSzNTczkc9d"?>
<x:xmpmeta xmlns:x="adobe:ns:meta/" x:xmptk="Adobe XMP Core 5.6-c140 79.160451, 2017/05/06-01:08:21        ">
   <rdf:RDF xmlns:rdf="http://www.w3.org/1999/02/22-rdf-syntax-ns#">
      <rdf:Description rdf:about=""/>
   </rdf:RDF>
</x:xmpmeta>
                                                                                                    
                                                                                                    
                                                                                                    
                                                                                                    
                                                                                                    
                                                                                                    
                                                                                                    
                                                                                                    
                                                                                                    
                                                                                                    
                                                                                                    
                                                                                                    
                                                                                                    
                                                                                                    
                                                                                                    
                                                                                                    
                                                                                                    
                                                                                                    
                                                                                                    
                                                                                                    
                           
<?xpacket end="w"?></metadata>
<defs>
    <style>
      .cls-1 {
        fill: #939395;
        fill-rule: evenodd;
      }
    </style>
  </defs>
  <path id="clipboard" class="cls-1" d="M1421.9,6854.94a1.965,1.965,0,1,1-1.94,1.96A1.944,1.944,0,0,1,1421.9,6854.94Zm48.7,27.99h-9.24v-9.34h9.24a1.15,1.15,0,0,0,0-2.3h-43.44a1.15,1.15,0,0,0,0,2.3h9.24v9.34h-9.24a1.15,1.15,0,0,0,0,2.3h43.44A1.15,1.15,0,0,0,1470.6,6882.93Zm-11.51,0h-20.42v-9.34h20.42v9.34Zm11.51,10.11h-43.44a1.145,1.145,0,0,0,0,2.29h43.44A1.145,1.145,0,0,0,1470.6,6893.04Zm5.27-37.29h-34.86l31.03-21.38a1.151,1.151,0,0,0,.29-1.59l-4.88-7.28a1.132,1.132,0,0,0-1.58-.3l-39.83,27.46a5.837,5.837,0,0,0-4.14-1.73,5.978,5.978,0,0,0-1.14,11.83v4.3a1.135,1.135,0,1,0,2.27,0v-2.82h51.7v23.44a1.135,1.135,0,1,0,2.27,0V6856.9A1.146,1.146,0,0,0,1475.87,6855.75Zm-9.66-28,0.78,1.17-1.93-.38Zm-3.81,2.62,6.4,1.23,1.02,1.52-3.03,2.09-8.92-1.72Zm-7.18,4.95,8.92,1.72-4.53,3.12-8.92-1.72Zm-7.18,4.95,8.92,1.71-4.53,3.13-8.92-1.72Zm-7.18,4.95,8.92,1.71-4.53,3.13-8.92-1.72Zm-7.18,4.95,8.92,1.71-5.62,3.87h-9.3v-0.03c-0.03-.12-0.36-1.17-0.36-1.17Zm-11.78,10.41a3.675,3.675,0,0,1,0-7.35,3.7,3.7,0,0,1,3.62,3.66v0.01A3.7,3.7,0,0,1,1421.9,6860.58Zm3.15,1.37a0.423,0.423,0,0,1,.07-0.05,6.053,6.053,0,0,0,2.22-2.7,6.287,6.287,0,0,0,.34-1.12v-0.03h7.7l3.85,3.9h-14.18Zm17.39,0-3.85-3.9h5.48l3.84,3.9h-5.47Zm8.68,0-3.84-3.9h5.47l3.85,3.9h-5.48Zm8.69,0-3.85-3.9h5.48l3.85,3.9h-5.48Zm8.69,0-3.85-3.9h5.48l3.84,3.9h-5.47Zm6.23-2.48-1.39-1.42h1.39v1.42Zm1.14,31.65a1.148,1.148,0,0,0-1.14,1.15v3.42a2.992,2.992,0,0,1-2.97,3.01H1426a2.992,2.992,0,0,1-2.97-3.01v-24.04a1.135,1.135,0,1,0-2.27,0v24.04A5.28,5.28,0,0,0,1426,6901h45.76a5.28,5.28,0,0,0,5.24-5.31v-3.42A1.146,1.146,0,0,0,1475.87,6891.12Z" transform="translate(-1416 -6825)"/>
</svg>
