<svg xmlns="http://www.w3.org/2000/svg" xmlns:xlink="http://www.w3.org/1999/xlink" width="16" height="16" viewBox="0 0 16 16"><defs><path id="q4mpa" d="M1450.786 285.103L1443.9 292l6.886 6.897a.648.648 0 0 1-.456 1.103.645.645 0 0 1-.456-.189l-6.887-6.897-6.886 6.897a.647.647 0 0 1-.912-.914l6.886-6.897-6.886-6.897a.647.647 0 0 1 .912-.914l6.886 6.897 6.887-6.897a.644.644 0 0 1 .912 0 .647.647 0 0 1 0 .914z"/></defs><g><g transform="translate(-1435 -284)"><use xlink:href="#q4mpa"/></g></g></svg>