<svg xmlns="http://www.w3.org/2000/svg" width="64" height="64" viewBox="0 0 64 64">
  <metadata><?xpacket begin="﻿" id="W5M0MpCehiHzreSzNTczkc9d"?>
<x:xmpmeta xmlns:x="adobe:ns:meta/" x:xmptk="Adobe XMP Core 5.6-c140 79.160451, 2017/05/06-01:08:21        ">
   <rdf:RDF xmlns:rdf="http://www.w3.org/1999/02/22-rdf-syntax-ns#">
      <rdf:Description rdf:about=""/>
   </rdf:RDF>
</x:xmpmeta>
                                                                                                    
                                                                                                    
                                                                                                    
                                                                                                    
                                                                                                    
                                                                                                    
                                                                                                    
                                                                                                    
                                                                                                    
                                                                                                    
                                                                                                    
                                                                                                    
                                                                                                    
                                                                                                    
                                                                                                    
                                                                                                    
                                                                                                    
                                                                                                    
                                                                                                    
                                                                                                    
                           
<?xpacket end="w"?></metadata>
<defs>
    <style>
      .cls-1 {
        fill: #939395;
        fill-rule: evenodd;
      }
    </style>
  </defs>
  <path id="gear" class="cls-1" d="M782.75,6844.5a1.25,1.25,0,1,0,1.25,1.25A1.25,1.25,0,0,0,782.75,6844.5Zm30.3,13.79-4.664-1.17a25.792,25.792,0,0,0-3.168-7.68l2.466-4.11a1.256,1.256,0,0,0-.188-1.53l-5.3-5.3a1.265,1.265,0,0,0-1.527-.19l-4.11,2.47a25.855,25.855,0,0,0-7.68-3.17l-1.166-4.66a1.248,1.248,0,0,0-1.212-.95H779a1.249,1.249,0,0,0-1.213.95l-1.179,4.71a26.083,26.083,0,0,0-7.58,3.17l-4.2-2.52a1.265,1.265,0,0,0-1.527.19l-5.3,5.3a1.255,1.255,0,0,0-.188,1.53l2.559,4.27a25.785,25.785,0,0,0-3.07,7.47l-4.855,1.22a1.25,1.25,0,0,0-.947,1.21v7.5a1.25,1.25,0,0,0,.947,1.21l4.909,1.23a25.846,25.846,0,0,0,3.033,7.33l-6.79,6.79h0l-1.766,1.77a6.25,6.25,0,1,0,8.837,8.84l1.768-1.77h0l6.79-6.79a25.859,25.859,0,0,0,7.332,3.03l1.227,4.91a1.249,1.249,0,0,0,1.213.95h7.5a1.249,1.249,0,0,0,1.213-.95l1.213-4.85a26.168,26.168,0,0,0,7.478-3.07l4.264,2.56a1.265,1.265,0,0,0,1.527-.19l5.3-5.31a1.239,1.239,0,0,0,.188-1.52l-2.518-4.2a25.843,25.843,0,0,0,3.167-7.58l4.717-1.18A1.25,1.25,0,0,0,814,6867v-7.5A1.251,1.251,0,0,0,813.053,6858.29ZM758.9,6892.4a3.748,3.748,0,1,1-5.3-5.3l0.884-.89,5.3,5.31Zm9.271-9.27s0,0-.006.01l-6.612,6.61-5.3-5.3,6.614-6.62h0l5.38-5.38c0-.01,0-0.01.007-0.01l4.343-4.34a11.275,11.275,0,0,0,5.3,5.3l-4.343,4.34c0,0.01,0,.01-0.006.01Zm17.639-21.36a1.249,1.249,0,0,0-1.581-1.58l-10.223,3.41c0-.12-0.007-0.23-0.007-0.35a8.75,8.75,0,1,1,8.75,8.75c-0.116,0-.231,0-0.346-0.01ZM780,6871.31l-0.186.18a8.757,8.757,0,0,1-5.3-5.3l0.186-.19,7.955-2.65Zm31.5-5.29h0l-4.517,1.13a1.26,1.26,0,0,0-.92.96,23.407,23.407,0,0,1-3.407,8.15,1.242,1.242,0,0,0-.031,1.33l2.416,4.03-3.924,3.92-4.084-2.45a1.261,1.261,0,0,0-1.323.02,23.386,23.386,0,0,1-8.06,3.31,1.235,1.235,0,0,0-.962.92l-1.164,4.66h-5.548l-1.177-4.71a1.258,1.258,0,0,0-.953-0.92,23.641,23.641,0,0,1-6.792-2.58l3.618-3.62a18.748,18.748,0,1,0,14.668-34.47,1.244,1.244,0,0,0-1.61.72,1.262,1.262,0,0,0,.729,1.62,16.248,16.248,0,0,1-5.71,31.46,16.163,16.163,0,0,1-6.184-1.23l3.989-3.99a10.732,10.732,0,0,0,2.2.22,11.238,11.238,0,1,0-11.034-9.05l-3.989,3.98a16.243,16.243,0,0,1,9.314-21.4,1.25,1.25,0,0,0-.881-2.34,18.753,18.753,0,0,0-10.327,25.64l-3.618,3.62a23.475,23.475,0,0,1-2.588-6.8,1.264,1.264,0,0,0-.919-0.95L754,6866.02v-5.54l4.66-1.17a1.255,1.255,0,0,0,.922-0.96,23.319,23.319,0,0,1,3.306-8.06,1.243,1.243,0,0,0,.023-1.32l-2.451-4.09,3.923-3.92,4.025,2.41a1.239,1.239,0,0,0,1.334-.03,23.434,23.434,0,0,1,8.15-3.4,1.259,1.259,0,0,0,.955-0.92l1.13-4.52h5.548l1.117,4.47a1.236,1.236,0,0,0,.965.92,23.413,23.413,0,0,1,8.246,3.4,1.232,1.232,0,0,0,1.33.03l3.936-2.36,3.923,3.92-2.362,3.94a1.25,1.25,0,0,0,.028,1.33,23.336,23.336,0,0,1,3.4,8.24,1.249,1.249,0,0,0,.922.97l4.469,1.12v5.54Z" transform="translate(-750 -6832)"/>
</svg>
