<svg xmlns="http://www.w3.org/2000/svg" xmlns:xlink="http://www.w3.org/1999/xlink" width="24" height="20" viewBox="0 0 24 20"><defs><path id="336ta" d="M3810.661 1308.597v7.712c0 .382-.32.692-.714.692h-15.933a.704.704 0 0 1-.715-.692v-7.712c0-.382.321-.692.715-.692.396 0 .716.31.716.692v7.02h14.503v-7.02c0-.382.32-.692.714-.692.395 0 .714.31.714.692zm3.09.489a.732.732 0 0 1-1.01 0l-10.762-10.416-10.758 10.416a.726.726 0 0 1-.507.203.724.724 0 0 1-.505-.203.675.675 0 0 1 0-.978l11.265-10.905a.731.731 0 0 1 1.011 0l11.266 10.905a.677.677 0 0 1 0 .978z"/></defs><g><g transform="translate(-3790 -1297)"><use fill="#fff" xlink:href="#336ta"/></g></g></svg>