<?xml version="1.0" encoding="utf-8"?>
<!-- Generator: Adobe Illustrator 16.0.4, SVG Export Plug-In . SVG Version: 6.00 Build 0)  -->
<!DOCTYPE svg PUBLIC "-//W3C//DTD SVG 1.1//EN" "http://www.w3.org/Graphics/SVG/1.1/DTD/svg11.dtd">
<svg version="1.1" id="Isolation_Mode" xmlns="http://www.w3.org/2000/svg" xmlns:xlink="http://www.w3.org/1999/xlink" x="0px"
	 y="0px" width="220.836px" height="150.524px" viewBox="0 0 220.836 150.524" enable-background="new 0 0 220.836 150.524"
	 xml:space="preserve">
<g>
	<g>
		<g>
			<rect x="68.448" y="117.294" fill="#C6C6C5" width="45.075" height="29.109"/>
			<rect x="68.448" y="117.294" fill="#B9B9B9" width="45.075" height="14.555"/>
			<g>
				<path fill="#E9E6E6" d="M171.554,124.432H10.419C4.688,124.432,0,119.744,0,114.013V10.419C0,4.688,4.688,0,10.419,0h161.135
					c5.729,0,10.419,4.688,10.419,10.418v103.595C181.973,119.744,177.283,124.432,171.554,124.432z"/>
				<circle fill="#C6C6C5" cx="90.99" cy="114.203" r="3.528"/>
				<path fill="#BBC5D3" d="M181.973,103.814V4.795c0-2.637-2.045-4.795-4.544-4.795H4.544C2.045,0,0,2.158,0,4.795v99.019H181.973z
					"/>
				<rect x="7.497" y="6.473" fill="#ECECEC" width="166.979" height="89.907"/>
			</g>
			<path fill="#F5F5F5" d="M125.272,150.524H56.699v-2.387c0-2.39,1.938-4.326,4.326-4.326h59.921c2.39,0,4.326,1.937,4.326,4.326
				V150.524z"/>
		</g>
		<rect x="16.988" y="23.624" display="none" fill="#FFFFFF" width="74.002" height="52.791"/>
		<rect x="19.397" y="25.587" display="none" fill="#239AEF" width="69.187" height="42.107"/>
		<path display="none" fill="#1F5785" d="M25.64,72.003c0,1.484-1.201,2.686-2.683,2.686s-2.683-1.201-2.683-2.686
			c0-1.481,1.201-2.677,2.683-2.677S25.64,70.522,25.64,72.003z"/>
		<path display="none" fill="#FFFFFF" d="M60.871,46.642c0,3.802-3.079,6.89-6.886,6.89c-3.804,0-6.886-3.088-6.886-6.89
			c0-3.809,3.082-6.89,6.886-6.89C57.792,39.752,60.871,42.833,60.871,46.642z"/>
		<polygon display="none" fill="#239AEF" points="51.474,42.613 51.474,50.664 58.139,46.642 		"/>
		<rect x="31.758" y="70.992" display="none" fill="#1F5785" width="44.462" height="1.303"/>
		<rect x="84.711" y="69.496" fill="#F2F2F2" width="3.873" height="0.984"/>
		<rect x="85.687" y="70.802" fill="#F2F2F2" width="2.897" height="0.975"/>
		<rect x="86.641" y="72.103" fill="#F2F2F2" width="1.943" height="0.979"/>
		<rect x="87.616" y="73.41" fill="#F2F2F2" width="0.968" height="0.976"/>
	</g>
	<polygon opacity="0.35" fill="#FFFFFF" points="7.497,74.199 151.025,6.473 7.497,6.473 	"/>
</g>
<g id="Rounded_Rectangle_1359">
	<g>
		<path fill="#FFFFFF" d="M162.737,14H18.788C16.697,14,15,15.695,15,17.788v68.187c0,2.093,1.697,3.788,3.788,3.788h143.949
			c2.092,0,3.788-1.695,3.788-3.788V17.788C166.525,15.695,164.829,14,162.737,14z"/>
	</g>
	<g>
		<path fill="#BCC6D4" d="M159.747,90.262h-5v-1h5V90.262z M149.747,90.262h-5v-1h5V90.262z M139.747,90.262h-5v-1h5V90.262z
			 M129.747,90.262h-5v-1h5V90.262z M119.747,90.262h-5v-1h5V90.262z M109.747,90.262h-5v-1h5V90.262z M99.747,90.262h-5v-1h5
			V90.262z M89.747,90.262h-5v-1h5V90.262z M79.747,90.262h-5v-1h5V90.262z M69.747,90.262h-5v-1h5V90.262z M59.747,90.262h-5v-1h5
			V90.262z M49.747,90.262h-5v-1h5V90.262z M39.747,90.262h-5v-1h5V90.262z M29.747,90.262h-5v-1h5V90.262z M19.747,90.262h-0.959
			c-1.561,0-2.999-0.849-3.755-2.215l0.875-0.484c0.58,1.048,1.684,1.699,2.88,1.699h0.959V90.262z M164.906,89.673l-0.506-0.861
			c1.002-0.59,1.625-1.677,1.625-2.838v-1.058h1v1.058C167.025,87.488,166.214,88.906,164.906,89.673z M15.5,82.886h-1v-5h1V82.886z
			 M167.025,79.917h-1v-5h1V79.917z M15.5,72.886h-1v-5h1V72.886z M167.025,69.917h-1v-5h1V69.917z M15.5,62.886h-1v-5h1V62.886z
			 M167.025,59.917h-1v-5h1V59.917z M15.5,52.886h-1v-5h1V52.886z M167.025,49.917h-1v-5h1V49.917z M15.5,42.886h-1v-5h1V42.886z
			 M167.025,39.917h-1v-5h1V39.917z M15.5,32.886h-1v-5h1V32.886z M167.025,29.917h-1v-5h1V29.917z M15.5,22.886h-1v-5h1V22.886z
			 M167.025,19.917h-1v-2.129c0-0.844-0.319-1.647-0.899-2.26l0.727-0.688c0.756,0.8,1.173,1.846,1.173,2.947V19.917z
			 M17.887,14.624l-0.271-0.962c0.381-0.108,0.775-0.163,1.173-0.163h3.949v1h-3.949C18.483,14.5,18.18,14.542,17.887,14.624z
			 M162.737,14.5h-5v-1h5V14.5z M152.737,14.5h-5v-1h5V14.5z M142.737,14.5h-5v-1h5V14.5z M132.737,14.5h-5v-1h5V14.5z
			 M122.737,14.5h-5v-1h5V14.5z M112.737,14.5h-5v-1h5V14.5z M102.737,14.5h-5v-1h5V14.5z M92.737,14.5h-5v-1h5V14.5z M82.737,14.5
			h-5v-1h5V14.5z M72.737,14.5h-5v-1h5V14.5z M62.737,14.5h-5v-1h5V14.5z M52.737,14.5h-5v-1h5V14.5z M42.737,14.5h-5v-1h5V14.5z
			 M32.737,14.5h-5v-1h5V14.5z"/>
	</g>
</g>
<g id="Rounded_Rectangle_1361">
	<g>
		<path fill="#229AEE" d="M147.585,26.626H32.678c-2.091,0-3.788,1.696-3.788,3.788v15.429c0,2.092,1.697,3.788,3.788,3.788h114.907
			c2.092,0,3.788-1.696,3.788-3.788V30.415C151.373,28.322,149.677,26.626,147.585,26.626z"/>
	</g>
</g>
<g id="Rounded_Rectangle_1361_copy">
	<g>
		<path fill="#1F5785" d="M86.344,55.393H32.678c-2.091,0-3.788,1.695-3.788,3.788V74.61c0,2.093,1.697,3.788,3.788,3.788h53.666
			c2.091,0,3.788-1.695,3.788-3.788V59.181C90.132,57.088,88.435,55.393,86.344,55.393z"/>
	</g>
</g>
<g id="Rounded_Rectangle_1361_copy_2">
	<g>
		<path fill="#1F5885" d="M148.848,55.393H96.879c-1.395,0-2.525,1.13-2.525,2.525v2.604c0,1.395,1.131,2.526,2.525,2.526h51.969
			c1.395,0,2.525-1.131,2.525-2.526v-2.604C151.373,56.523,150.242,55.393,148.848,55.393z"/>
	</g>
</g>
<g id="Rounded_Rectangle_1361_copy_3">
	<g>
		<path fill="#BDC7D5" d="M142.495,68.809H96.879c-1.395,0-2.525,1.131-2.525,2.525v2.604c0,1.395,1.131,2.525,2.525,2.525h45.616
			c1.395,0,2.525-1.131,2.525-2.525v-2.604C145.021,69.94,143.89,68.809,142.495,68.809z"/>
	</g>
</g>
<g>
	<path fill="#FFFFFF" d="M212.779,131.058H111.288c-2.321,0-4.097-1.775-4.097-4.096V61.396c0-2.322,1.775-4.096,4.097-4.096
		h101.491c2.32,0,4.097,1.773,4.097,4.096v65.43C216.876,129.146,214.964,131.058,212.779,131.058z"/>
	<path fill="#ECECEC" d="M212.779,135.019H111.152c-4.369,0-8.059-3.553-8.059-8.057V61.396c0-4.371,3.552-8.061,8.059-8.061
		h101.627c4.371,0,8.057,3.551,8.057,8.061v65.699C220.836,131.466,217.284,135.019,212.779,135.019z M212.779,61.396H111.152
		v65.699h101.627V61.396z"/>
</g>
<g>
	<g>
		<g>
			<rect x="121.613" y="63.316" fill="#ECF0F1" width="81.577" height="62.295"/>
			<path fill="#FFFFFF" d="M204.674,127.095H120.13V61.833h84.544V127.095z M123.098,124.126h78.609V64.798h-78.609V124.126z"/>
		</g>
		<g>
			<rect x="127.545" y="69.248" fill="#239AEF" width="69.713" height="50.432"/>
			<path fill="#ECF0F1" d="M198.74,121.162h-72.678V67.765h72.678V121.162z M129.029,118.195h66.745V70.73h-66.745V118.195z"/>
		</g>
		<circle fill="#FFFFFF" cx="142.379" cy="81.958" r="6.775"/>
		<polygon fill="#FFFFFF" points="195.774,105.009 194.291,103.363 176.493,87.048 160.919,104.105 169.05,112.238 175.009,118.195 
			195.774,118.195 		"/>
		<polygon fill="#FFFFFF" points="129.029,118.195 175.009,118.195 169.05,112.238 152.786,95.972 129.029,116.71 		"/>
	</g>
</g>
<polygon opacity="0.35" fill="#FFFFFF" points="111.485,108.828 212.444,61.189 111.485,61.189 "/>
<g>
	<g>
		<path fill="#2299F0" d="M219.311,119.269l-19.669-13.023c-0.193-0.129-0.354-0.096-0.675-0.031
			c-0.127,0.193-0.254,0.387-0.222,0.545l4.853,23.879c0.033,0.162,0.258,0.449,0.418,0.418c0.161-0.033,0.481-0.098,0.609-0.291
			l3.251-6.168l4.155,5.664c0.193,0.127,0.386,0.254,0.546,0.223l0.161-0.033l3.52-2.385c0.16-0.033,0.288-0.225,0.256-0.385
			s-0.065-0.322-0.098-0.48l-4.154-5.664l6.73-1.369c0.159-0.031,0.448-0.258,0.416-0.418
			C219.568,119.716,219.503,119.396,219.311,119.269z"/>
	</g>
</g>
</svg>
