<?xml version="1.0" encoding="utf-8"?>
<!-- Generator: Adobe Illustrator 16.0.0, SVG Export Plug-In . SVG Version: 6.00 Build 0)  -->
<!DOCTYPE svg PUBLIC "-//W3C//DTD SVG 1.1//EN" "http://www.w3.org/Graphics/SVG/1.1/DTD/svg11.dtd">
<svg version="1.1" id="Layer_1" xmlns="http://www.w3.org/2000/svg" xmlns:xlink="http://www.w3.org/1999/xlink" x="0px" y="0px"
	 width="235.163px" height="209.596px" viewBox="201.833 32.043 235.163 209.596"
	 enable-background="new 201.833 32.043 235.163 209.596" xml:space="preserve">
<path fill="#BCC6D4" d="M422.984,32.043H216.016c-7.879,0-14.183,6.304-14.183,14.183v143.757c0,7.88,6.304,14.183,14.183,14.183
	H422.81c7.879,0,14.183-6.303,14.183-14.183V46.226C437.168,38.347,430.688,32.043,422.984,32.043z"/>
<rect x="216.016" y="66.888" fill="#FCFCFD" width="206.968" height="122.395"/>
<circle fill="#F0582F" cx="418.432" cy="50.429" r="4.553"/>
<circle fill="#FBD303" cx="402.497" cy="50.429" r="4.553"/>
<g>
	<circle fill="#259AF1" cx="386.563" cy="50.429" r="4.553"/>
	<path fill="#259AF1" d="M389.54,158.465l-13.483-3.677c-1.4-5.778-3.677-11.206-6.653-16.109l7.004-12.082
		c0.7-1.401,0.525-3.152-0.524-4.203l-9.981-9.98c-1.05-1.051-2.802-1.401-4.202-0.525l-12.082,7.004
		c-4.902-2.977-10.33-5.253-16.109-6.654l-3.678-13.483c-0.35-1.576-1.751-2.626-3.326-2.626h-14.183
		c-1.576,0-2.977,1.05-3.327,2.626l-3.678,13.483c-5.778,1.401-11.207,3.677-16.109,6.654l-12.082-7.004
		c-1.401-0.7-3.152-0.525-4.203,0.525l-9.98,9.98c-1.051,1.05-1.401,2.801-0.525,4.203l7.004,12.082
		c-2.977,4.903-5.253,10.331-6.654,16.109l-13.483,3.677c-1.576,0.351-2.626,1.752-2.626,3.327v14.184
		c0,1.575,1.05,2.977,2.626,3.327l13.483,3.677c1.401,5.778,3.677,11.206,6.654,16.109l-7.004,12.082
		c-0.7,1.401-0.525,3.151,0.525,4.202l9.98,9.98c1.05,1.051,2.801,1.401,4.203,0.525l12.082-7.004
		c4.903,2.977,10.331,5.253,16.109,6.654l3.678,13.482c0.35,1.576,1.751,2.627,3.327,2.627h14.183c1.576,0,2.977-1.051,3.326-2.627
		l3.678-13.482c5.778-1.401,11.207-3.678,16.109-6.654l12.082,7.004c1.4,0.7,3.151,0.525,4.202-0.525l9.981-9.98
		c1.05-1.051,1.4-2.801,0.524-4.202l-7.004-12.082c2.977-4.903,5.253-10.331,6.653-16.109l13.483-3.677
		c1.576-0.351,2.626-1.752,2.626-3.327v-14.184C392.166,160.392,391.115,158.99,389.54,158.465z M319.5,194.887
		c-14.358,0-25.915-11.557-25.915-25.916c0-14.357,11.557-25.914,25.915-25.914c14.358,0,25.915,11.557,25.915,25.914
		C345.415,183.33,333.858,194.887,319.5,194.887z"/>
</g>
</svg>
