<?xml version="1.0" encoding="utf-8"?>
<!-- Generator: Adobe Illustrator 16.0.4, SVG Export Plug-In . SVG Version: 6.00 Build 0)  -->
<!DOCTYPE svg PUBLIC "-//W3C//DTD SVG 1.1//EN" "http://www.w3.org/Graphics/SVG/1.1/DTD/svg11.dtd">
<svg version="1.1" id="Layer_1" xmlns="http://www.w3.org/2000/svg" xmlns:xlink="http://www.w3.org/1999/xlink" x="0px" y="0px"
	 width="152px" height="127px" viewBox="0 0 152 127" enable-background="new 0 0 152 127" xml:space="preserve">
<g>
	<g>
		<g>
			<rect x="57.174" y="98.965" fill="#C6C6C5" width="37.651" height="24.56"/>
			<rect x="57.174" y="98.965" fill="#B9B9B9" width="37.651" height="12.279"/>
			<g>
				<path fill="#F5F5F5" d="M143.296,104.985H8.703c-4.787,0-8.703-3.954-8.703-8.789V8.791C0,3.956,3.916,0,8.703,0h134.593
					C148.083,0,152,3.956,152,8.791v87.406C152,101.031,148.083,104.985,143.296,104.985z"/>
				<ellipse fill="#C6C6C5" cx="76.002" cy="96.355" rx="2.947" ry="2.977"/>
				<path fill="#BBC5D3" d="M152,87.591V4.045C152,1.82,150.292,0,148.203,0H3.795C1.708,0,0,1.82,0,4.045v83.545H152z"/>
				<rect x="6.262" y="5.461" fill="#ECECEC" width="139.474" height="75.857"/>
			</g>
			<path fill="#F5F5F5" d="M104.638,127H47.36v-2.014c0-2.016,1.619-3.65,3.614-3.65h50.051c1.997,0,3.613,1.635,3.613,3.65V127z"/>
		</g>
		<rect x="14.19" y="19.932" fill="#FFFFFF" width="61.813" height="44.541"/>
		<rect x="16.202" y="21.588" fill="#239AEF" width="57.791" height="35.526"/>
		<path fill="#1F5785" d="M21.416,60.751c0,1.253-1.003,2.267-2.241,2.267c-1.237,0-2.241-1.014-2.241-2.267
			c0-1.25,1.003-2.259,2.241-2.259C20.413,58.492,21.416,59.501,21.416,60.751z"/>
		<path fill="#FFFFFF" d="M50.845,39.354c0,3.207-2.572,5.812-5.751,5.812c-3.177,0-5.752-2.605-5.752-5.812
			c0-3.214,2.575-5.814,5.752-5.814C48.273,33.54,50.845,36.139,50.845,39.354z"/>
		<polygon fill="#239AEF" points="42.995,35.954 42.995,42.747 48.562,39.354 		"/>
		<rect x="26.527" y="59.897" fill="#1F5785" width="37.138" height="1.1"/>
		<rect x="70.758" y="58.636" fill="#F2F2F2" width="3.235" height="0.83"/>
		<rect x="71.572" y="59.738" fill="#F2F2F2" width="2.421" height="0.822"/>
		<rect x="72.37" y="60.835" fill="#F2F2F2" width="1.623" height="0.826"/>
		<rect x="73.185" y="61.938" fill="#F2F2F2" width="0.809" height="0.822"/>
	</g>
	<polygon opacity="0.35" fill="#FFFFFF" points="6.262,62.604 126.149,5.461 6.262,5.461 	"/>
</g>
<g>
	<g>
		<g>
			<rect x="81.439" y="20.936" fill="#ECF0F1" width="54.67" height="42.171"/>
			<path fill="#FFFFFF" d="M137.104,64.111h-56.66V19.932h56.66V64.111z M82.433,62.103h52.684V21.94H82.433V62.103z"/>
		</g>
		<g>
			<rect x="85.413" y="24.952" fill="#239AEF" width="46.721" height="34.14"/>
			<path fill="#ECF0F1" d="M133.129,60.096H84.42V23.948h48.709V60.096z M86.408,58.087h44.732V25.956H86.408V58.087z"/>
		</g>
		<ellipse fill="#FFFFFF" cx="95.355" cy="33.556" rx="4.54" ry="4.588"/>
		<polygon fill="#FFFFFF" points="131.141,49.162 130.146,48.046 118.218,37.002 107.78,48.549 113.23,54.055 117.225,58.087 
			131.141,58.087 		"/>
		<polygon fill="#FFFFFF" points="86.408,58.087 117.225,58.087 113.23,54.055 102.329,43.043 86.408,57.083 		"/>
	</g>
</g>
</svg>
