<?xml version="1.0" encoding="utf-8"?>
<!-- Generator: Adobe Illustrator 16.0.4, SVG Export Plug-In . SVG Version: 6.00 Build 0)  -->
<!DOCTYPE svg PUBLIC "-//W3C//DTD SVG 1.1//EN" "http://www.w3.org/Graphics/SVG/1.1/DTD/svg11.dtd">
<svg version="1.1" id="Isolation_Mode" xmlns="http://www.w3.org/2000/svg" xmlns:xlink="http://www.w3.org/1999/xlink" x="0px"
	 y="0px" width="157.388px" height="137.2px" viewBox="0 0 157.388 137.2" enable-background="new 0 0 157.388 137.2"
	 xml:space="preserve">
<g>
	<path fill="#FFFFFF" d="M153.324,134.203h-51.191c-1.171,0-2.066-0.896-2.066-2.066v-33.07c0-1.172,0.896-2.066,2.066-2.066h51.191
		c1.17,0,2.066,0.895,2.066,2.066v33.001C155.391,133.238,154.426,134.203,153.324,134.203z"/>
	<path fill="#ECECEC" d="M153.324,136.2h-51.26c-2.203,0-4.064-1.791-4.064-4.063v-33.07C98,96.861,99.791,95,102.064,95h51.26
		c2.204,0,4.063,1.791,4.063,4.066v33.137C157.388,134.409,155.597,136.2,153.324,136.2z M153.324,99.066h-51.26v33.137h51.26
		V99.066z"/>
</g>
<g>
	<path fill="#FFFFFF" d="M153.324,39.203h-51.191c-1.171,0-2.066-0.896-2.066-2.066V4.065c0-1.171,0.896-2.065,2.066-2.065h51.191
		c1.17,0,2.066,0.895,2.066,2.065v33.001C155.391,38.238,154.426,39.203,153.324,39.203z"/>
	<path fill="#ECECEC" d="M153.324,41.2h-51.26C99.861,41.2,98,39.409,98,37.136V4.065C98,1.861,99.791,0,102.064,0h51.26
		c2.204,0,4.063,1.791,4.063,4.065v33.137C157.388,39.409,155.597,41.2,153.324,41.2z M153.324,4.065h-51.26v33.137h51.26V4.065z"/>
</g>
<g>
	<path fill="#FFFFFF" d="M55.324,40.203H4.133c-1.171,0-2.066-0.896-2.066-2.066V5.065C2.066,3.895,2.962,3,4.133,3h51.191
		c1.17,0,2.066,0.895,2.066,2.065v33.001C57.391,39.238,56.426,40.203,55.324,40.203z"/>
	<path fill="#ECECEC" d="M55.324,42.2H4.064C1.861,42.2,0,40.409,0,38.136V5.065C0,2.861,1.791,1,4.064,1h51.26
		c2.204,0,4.063,1.791,4.063,4.065v33.137C59.388,40.409,57.597,42.2,55.324,42.2z M55.324,5.065H4.064v33.137h51.26V5.065z"/>
</g>
<g>
	<g>
		<g>
			<rect x="9.341" y="6.034" fill="#ECF0F1" width="41.146" height="31.421"/>
			<path fill="#FFFFFF" d="M51.235,38.203H8.593V5.286h42.643V38.203z M10.09,36.706h39.649V6.782H10.09V36.706z"/>
		</g>
		<g>
			<rect x="12.333" y="9.026" fill="#239AEF" width="35.162" height="25.438"/>
			<path fill="#ECF0F1" d="M48.243,35.21H11.585V8.278h36.658V35.21z M13.081,33.713h33.666V9.773H13.081V33.713z"/>
		</g>
		<circle fill="#FFFFFF" cx="19.815" cy="15.437" r="3.418"/>
		<polygon fill="#FFFFFF" points="46.747,27.064 45.999,26.233 37.021,18.004 29.166,26.608 33.268,30.709 36.273,33.713 
			46.747,33.713 		"/>
		<polygon fill="#FFFFFF" points="13.081,33.713 36.273,33.713 33.268,30.709 25.064,22.505 13.081,32.965 		"/>
	</g>
</g>
<polygon opacity="0.35" fill="#FFFFFF" points="4.232,28.989 55.155,4.961 4.232,4.961 "/>
<g id="Price_Tag">
	
		<linearGradient id="SVGID_1_" gradientUnits="userSpaceOnUse" x1="-426.771" y1="392.7095" x2="-426.771" y2="390.6342" gradientTransform="matrix(8 0 0 -8 3543.1436 3244.8999)">
		<stop  offset="0" style="stop-color:#00C6FF"/>
		<stop  offset="1" style="stop-color:#0072FF"/>
	</linearGradient>
	<path fill="url(#SVGID_1_)" d="M139.896,104.055h-7.232c-0.412-0.001-0.809,0.163-1.101,0.456l-14.61,14.611
		c-0.606,0.607-0.606,1.593,0,2.2l7.232,7.23c0.607,0.607,1.592,0.608,2.199,0.001c0.001,0,0.002-0.001,0.002-0.001l14.609-14.609
		c0.293-0.291,0.458-0.688,0.457-1.101v-7.231C141.45,104.752,140.755,104.056,139.896,104.055z M136.611,111.117
		c-1.228,0-2.223-0.996-2.223-2.224c0.001-1.228,0.996-2.223,2.224-2.223s2.223,0.995,2.223,2.224
		C138.833,110.121,137.839,111.116,136.611,111.117L136.611,111.117z"/>
	<path fill="#FFFFFF" d="M133.445,119.638c-0.171-0.171-0.171-0.448,0-0.619l3.284-3.284c0.174-0.168,0.451-0.163,0.619,0.011
		c0.163,0.169,0.163,0.438,0,0.607l-3.285,3.285C133.893,119.808,133.616,119.808,133.445,119.638z M137.872,115.211
		c-0.172-0.171-0.172-0.447-0.001-0.618c0,0,0-0.001,0.001-0.001l0.313-0.313c0.171-0.171,0.448-0.171,0.618,0
		c0.172,0.171,0.172,0.448,0,0.619l-0.314,0.313C138.319,115.382,138.042,115.382,137.872,115.211z M131.415,106.512
		c-0.171-0.171-0.171-0.448,0-0.619l0,0l0.765-0.764c0.126-0.129,0.3-0.201,0.481-0.199h1.335c0.241,0,0.438,0.196,0.438,0.438
		s-0.196,0.438-0.438,0.438h-1.253l-0.707,0.707c-0.17,0.171-0.447,0.173-0.618,0.002
		C131.417,106.514,131.416,106.513,131.415,106.512L131.415,106.512z M136.073,105.805h-0.526c-0.241,0-0.437-0.196-0.437-0.438
		s0.195-0.438,0.437-0.438h0.529c0.241,0,0.438,0.196,0.438,0.438s-0.196,0.438-0.438,0.438H136.073z"/>
	
		<linearGradient id="SVGID_2_" gradientUnits="userSpaceOnUse" x1="-426.9458" y1="391.5942" x2="-427.0478" y2="389.6317" gradientTransform="matrix(7.9976 0 0 -7.9976 3542.0454 3243.7651)">
		<stop  offset="0" style="stop-color:#F3F7FF"/>
		<stop  offset="1" style="stop-color:#CDD9FF"/>
	</linearGradient>
	<path fill="url(#SVGID_2_)" d="M119.938,119.907l8.803-8.803c0.173-0.174,0.455-0.174,0.628,0l5.03,5.03
		c0.174,0.174,0.174,0.455,0,0.629l-8.803,8.802c-0.174,0.174-0.455,0.174-0.629,0l-5.029-5.03
		C119.765,120.362,119.765,120.081,119.938,119.907z"/>
</g>
<g>
	<path fill="#FFFFFF" d="M129.737,111.213H28.246c-2.321,0-4.097-1.776-4.097-4.097V41.551c0-2.322,1.775-4.096,4.097-4.096h101.491
		c2.32,0,4.097,1.773,4.097,4.096v65.429C133.834,109.301,131.922,111.213,129.737,111.213z"/>
	<path fill="#BCC6D4" d="M129.737,115.173H28.11c-4.369,0-8.059-3.552-8.059-8.057V41.551c0-4.371,3.552-8.061,8.059-8.061h101.627
		c4.371,0,8.057,3.551,8.057,8.061v65.698C137.794,111.622,134.242,115.173,129.737,115.173z M129.737,41.551H28.11v65.698h101.627
		V41.551z"/>
</g>
<g>
	<g>
		<g display="none">
			<rect x="92.598" y="140.333" display="inline" fill="#C6C6C5" width="45.075" height="29.109"/>
			<rect x="92.598" y="140.333" display="inline" fill="#B9B9B9" width="45.075" height="14.555"/>
			<g display="inline">
				<path fill="#F5F5F5" d="M195.703,147.471H34.568c-5.73,0-10.419-4.688-10.419-10.419V33.458c0-5.73,4.688-10.418,10.419-10.418
					h161.135c5.729,0,10.419,4.688,10.419,10.418v103.595C206.122,142.783,201.433,147.471,195.703,147.471z"/>
				<circle fill="#C6C6C5" cx="115.139" cy="137.242" r="3.528"/>
				<path fill="#BBC5D3" d="M206.122,126.853V27.834c0-2.637-2.045-4.795-4.544-4.795H28.693c-2.499,0-4.544,2.158-4.544,4.795
					v99.019H206.122z"/>
				<rect x="31.646" y="29.512" fill="#ECECEC" width="166.979" height="89.907"/>
			</g>
			<path display="inline" fill="#F5F5F5" d="M149.422,173.563H80.849v-2.387c0-2.39,1.938-4.326,4.326-4.326h59.921
				c2.39,0,4.326,1.937,4.326,4.326V173.563z"/>
		</g>
		<rect x="41.138" y="46.663" fill="#FFFFFF" width="74.002" height="52.791"/>
		<rect x="43.547" y="48.625" fill="#239AEF" width="69.187" height="42.107"/>
		<path fill="#1F5785" d="M49.789,95.042c0,1.484-1.201,2.686-2.683,2.686s-2.683-1.201-2.683-2.686
			c0-1.481,1.201-2.678,2.683-2.678S49.789,93.561,49.789,95.042z"/>
		<path fill="#FFFFFF" d="M85.021,69.681c0,3.802-3.079,6.89-6.886,6.89c-3.804,0-6.886-3.088-6.886-6.89
			c0-3.81,3.082-6.89,6.886-6.89C81.941,62.792,85.021,65.872,85.021,69.681z"/>
		<polygon fill="#239AEF" points="75.623,65.652 75.623,73.704 82.288,69.681 		"/>
		<rect x="55.907" y="94.031" fill="#1F5785" width="44.462" height="1.303"/>
		<rect x="108.86" y="92.535" fill="#F2F2F2" width="3.873" height="0.984"/>
		<rect x="109.836" y="93.841" fill="#F2F2F2" width="2.897" height="0.975"/>
		<rect x="110.79" y="95.142" fill="#F2F2F2" width="1.943" height="0.979"/>
		<rect x="111.766" y="96.449" fill="#F2F2F2" width="0.968" height="0.976"/>
	</g>
	<polygon opacity="0.35" fill="#FFFFFF" points="28.605,89.514 129.564,41.875 28.605,41.875 	"/>
</g>
<g>
	<path fill="#FFFFFF" d="M55.324,135.203H4.133c-1.171,0-2.066-0.896-2.066-2.066v-33.07C2.066,98.894,2.962,98,4.133,98h51.191
		c1.17,0,2.066,0.895,2.066,2.066v33.001C57.391,134.238,56.426,135.203,55.324,135.203z"/>
	<path fill="#ECECEC" d="M55.324,137.2H4.064C1.861,137.2,0,135.409,0,133.136v-33.07C0,97.861,1.791,96,4.064,96h51.26
		c2.204,0,4.063,1.791,4.063,4.066v33.137C59.388,135.409,57.597,137.2,55.324,137.2z M55.324,100.066H4.064v33.137h51.26V100.066z"
		/>
</g>
<path fill="#00A6F9" d="M141.46,20.569c0.915-2.098,0.539-4.625-1.129-6.292c-1.667-1.667-4.088-2.044-6.131-1.237
	c-0.055-3.066-2.528-5.54-5.648-5.54c-3.065,0-5.594,2.527-5.594,5.647l0,0c-0.538-0.215-0.914-0.323-1.452-0.323
	c-1.828,0-3.334,1.506-3.334,3.335c0,0.484,0.107,0.915,0.269,1.291c-0.107,0-0.215-0.054-0.377-0.054
	c-1.183,0-2.15,0.968-2.15,2.152c0,0.376,0.106,0.699,0.268,1.021c-2.15,0.807-3.656,2.797-3.656,5.217
	c-0.055,3.173,2.474,5.647,5.594,5.647h21.514c3.119,0,5.647-2.474,5.647-5.594C145.279,23.366,143.666,21.322,141.46,20.569z"/>
<circle fill="#00B3F9" cx="136.405" cy="9.866" r="1.291"/>
<path fill="#007AF4" d="M138.771,11.641c0.322,0,0.591-0.269,0.591-0.592c0-0.322-0.269-0.591-0.591-0.591s-0.592,0.269-0.592,0.591
	C138.18,11.372,138.449,11.641,138.771,11.641z"/>
<g>
	<path fill="#0093F7" d="M139.362,8.952c0.162,0,0.323-0.162,0.323-0.323c0-0.161-0.161-0.323-0.323-0.323
		c-0.161,0-0.322,0.162-0.322,0.323C139.094,8.79,139.201,8.952,139.362,8.952z"/>
	<path fill="#0093F7" d="M145.279,25.84c0-2.474-1.613-4.518-3.819-5.325c0.915-2.098,0.539-4.572-1.129-6.293
		c-1.667-1.667-4.088-2.043-6.131-1.237c-0.055-3.065-2.528-5.54-5.648-5.54c-3.065,0.054-5.594,2.582-5.594,5.701l0,0
		c-0.538-0.215-0.914-0.323-1.452-0.323c-1.828,0-3.334,1.506-3.334,3.335c0,0.43,0.054,0.753,0.214,1.129l14.2,14.146h7.046
		C142.751,31.434,145.279,28.959,145.279,25.84z"/>
</g>
<g>
	<path fill="#007AF4" d="M129.874,18.041l4.949,4.948c0.592,0.591,0.592,1.56,0,2.151c-0.592,0.592-1.561,0.592-2.151,0
		l-2.798-2.743l-2.742,2.743c-0.592,0.592-1.56,0.592-2.152,0c-0.591-0.591-0.591-1.56,0-2.151L129.874,18.041z"/>
	<path fill="#007AF4" d="M129.874,20.192c0.861,0,1.614,0.7,1.614,1.56v6.992c0,0.861-0.753,1.56-1.614,1.56
		c-0.86,0-1.612-0.699-1.612-1.56v-6.992C128.262,20.892,129.014,20.192,129.874,20.192z"/>
</g>
<g>
	<path fill="#FFFFFF" d="M128.874,16.912l4.949,4.948c0.592,0.592,0.592,1.56,0,2.151c-0.592,0.591-1.561,0.591-2.151,0
		l-2.798-2.743l-2.742,2.743c-0.592,0.591-1.56,0.591-2.152,0c-0.591-0.592-0.591-1.56,0-2.151L128.874,16.912z"/>
	<path fill="#FFFFFF" d="M128.874,19.117c0.861,0,1.614,0.699,1.614,1.56v6.993c0,0.86-0.753,1.56-1.614,1.56
		c-0.86,0-1.612-0.699-1.612-1.56v-6.993C127.262,19.762,128.014,19.117,128.874,19.117z"/>
</g>
<g>
	<path fill="#B8C8D9" d="M39.42,102.841H20.968c-1.477,0-2.679,1.202-2.679,2.678v3.572c0,0.493,0.401,0.893,0.893,0.893h22.023
		c0.493,0,0.894-0.399,0.894-0.893v-3.572C42.099,104.043,40.897,102.841,39.42,102.841z M24.539,106.412
		c-0.493,0-0.893-0.399-0.893-0.893s0.399-0.893,0.893-0.893s0.893,0.399,0.893,0.893S25.032,106.412,24.539,106.412z
		 M35.849,106.412c-0.493,0-0.894-0.399-0.894-0.893s0.4-0.893,0.894-0.893c0.492,0,0.893,0.399,0.893,0.893
		S36.341,106.412,35.849,106.412z"/>
	<path fill="#61BBF2" d="M41.181,129.625H19.206c-0.788,0-1.532-0.345-2.043-0.947c-0.509-0.601-0.729-1.394-0.598-2.172
		l1.427-8.487l-1.342-6.617c-0.157-0.789,0.045-1.601,0.556-2.223c0.511-0.623,1.266-0.98,2.071-0.98h21.832
		c0.807,0,1.561,0.357,2.072,0.98c0.511,0.622,0.713,1.434,0.555,2.223l-1.341,6.617l1.428,8.487l0,0
		c0.129,0.778-0.089,1.571-0.599,2.172C42.714,129.281,41.969,129.625,41.181,129.625z"/>
	<path fill="#239AEF" d="M43.225,128.678c0.51-0.601,0.728-1.394,0.598-2.172l-1.427-8.487H17.992l-1.427,8.487
		c-0.131,0.779,0.089,1.571,0.598,2.172c0.511,0.603,1.255,0.947,2.043,0.947h21.975C41.969,129.625,42.714,129.281,43.225,128.678z
		"/>
	<path fill="#CFDBE6" d="M36.189,111.837c-0.332-0.138-0.718-0.062-0.973,0.193l-2.678,2.679c-0.349,0.349-0.349,0.913,0,1.263
		c0.349,0.349,0.914,0.349,1.262,0l1.154-1.154v8.559c0,0.493,0.4,0.893,0.894,0.893c0.492,0,0.893-0.399,0.893-0.893v-10.715
		C36.741,112.301,36.523,111.975,36.189,111.837z"/>
	<path fill="#E6F3FF" d="M34.955,118.019v5.357c0,0.493,0.4,0.893,0.894,0.893c0.492,0,0.893-0.399,0.893-0.893v-5.357H34.955z"/>
	<path fill="#CFDBE6" d="M30.789,115.341c0-1.971-1.602-3.572-3.57-3.572c-1.971,0-3.572,1.602-3.572,3.572
		c0,0.493,0.399,0.893,0.893,0.893s0.893-0.399,0.893-0.893c0-0.985,0.802-1.786,1.787-1.786c0.983,0,1.785,0.801,1.785,1.786
		c0,0.984-0.802,1.785-1.785,1.785c-0.493,0-0.895,0.399-0.895,0.893s0.401,0.893,0.895,0.893c0.983,0,1.785,0.802,1.785,1.786
		s-0.802,1.785-1.785,1.785c-0.985,0-1.787-0.801-1.787-1.785c0-0.493-0.399-0.893-0.893-0.893s-0.893,0.399-0.893,0.893
		c0,1.969,1.602,3.571,3.572,3.571c1.969,0,3.57-1.603,3.57-3.571c0-1.065-0.47-2.024-1.213-2.679
		C30.318,117.365,30.789,116.407,30.789,115.341z"/>
	<path fill="#E6F3FF" d="M27.219,118.912c0.983,0,1.785,0.802,1.785,1.786s-0.802,1.785-1.785,1.785
		c-0.985,0-1.787-0.801-1.787-1.785c0-0.493-0.399-0.893-0.893-0.893s-0.893,0.399-0.893,0.893c0,1.969,1.602,3.571,3.572,3.571
		c1.969,0,3.57-1.603,3.57-3.571c0-1.065-0.47-2.024-1.213-2.679h-3.252C26.324,118.512,26.726,118.912,27.219,118.912z"/>
</g>
</svg>
