<?xml version="1.0" encoding="utf-8"?>
<!-- Generator: Adobe Illustrator 16.0.0, SVG Export Plug-In . SVG Version: 6.00 Build 0)  -->
<!DOCTYPE svg PUBLIC "-//W3C//DTD SVG 1.1//EN" "http://www.w3.org/Graphics/SVG/1.1/DTD/svg11.dtd">
<svg version="1.1" id="Layer_1" xmlns="http://www.w3.org/2000/svg" xmlns:xlink="http://www.w3.org/1999/xlink" x="0px" y="0px"
	 width="263px" height="263px" viewBox="188 0 263 263" enable-background="new 188 0 263 263" xml:space="preserve">
<g>
	<circle fill="#E6E6E6" cx="319.5" cy="131.5" r="131.5"/>
	<path fill="#249AF0" d="M451,131.5c0-26.384-7.769-50.952-21.146-71.542c0,0-7.501,10.958-6.092,18.002
		c1.408,7.045,9.686,7.583,8.835,12.75c-0.85,5.167-6.955-1.479-14.471,12.14c-7.516,13.62-3.757,32.411,7.044,33.817
		C435.972,138.073,451,131.5,451,131.5z"/>
	<path fill="#249AF0" d="M354.034,4.582c15.306,4.154,29.502,11.005,42.048,20.008c0,0-15.248-2.515-21.024,2.649
		c-5.775,5.166-14.199,17.379-21.024,0C347.21,9.862,354.034,4.582,354.034,4.582z"/>
	<path fill="#249AF0" d="M220.628,44.802C244.729,17.338,280.088,0,319.5,0c0,0-8.921,5.402,7.985,14.56
		c16.907,9.159,9.157,13.385,5.636,16.203s-9.631-5.635-13.621-11.271c-3.991-5.636-21.128-14.324-34.279-9.626
		c-13.15,4.697-24.419,8.167-22.542,12.538c1.876,4.369,24.419-4.081,32.873-3.614c8.453,0.468,5.635,5.633-2.347,11.74
		c-7.983,6.106-8.924,13.619-0.471,18.315c8.453,4.698,18.783,5.168,21.134,2.351c2.35-2.818-4.227-21.134,11.742-13.151
		s29.119,12.683,15.969,24.423c-13.151,11.738-28.179,24.893-28.649,32.404c-0.471,7.513,4.698,13.623,1.88,14.09
		c-2.818,0.468-5.404-3.052-7.282-5.636c-1.876-2.583-10.567-3.521-14.793-1.879c-4.227,1.643-12.212,7.983-7.749,14.089
		c4.463,6.107,10.563,3.285,16.671,6.104c6.106,2.818,11.8,13.543,10.631,15.967c-1.169,2.423-6.375-0.645-10.631-8.922
		c-4.258-8.278-12.244-2.818-17.862-4.227c-5.619-1.409-9.846-2.348-15.482-12.21c-5.636-9.862-17.304-12.622-22.072-18.315
		c-13.658-16.309-12.681-28.648-15.499-34.284C227.922,54.01,220.628,44.802,220.628,44.802z"/>
	<path fill="#249AF0" d="M332.18,133.379c0,0,14.09,1.406,21.135,7.514c7.044,6.105,7.984,8.455,18.786,10.803
		c10.801,2.347,15.499,8.451,8.454,20.193c-7.045,11.74-19.728,30.527-25.832,36.164c-6.104,5.636-13.618,10.332-16.436,19.725
		c-2.818,9.391-3.76,15.023,2.347,18.783c0,0-3.285,7.985-10.8-2.348c-7.516-10.333-1.41-22.542,0-29.587
		c1.408-7.044,5.164-28.176,2.816-33.345c-2.346-5.167-13.15-8.455-15.968-19.256C313.864,151.226,318.796,130.207,332.18,133.379z"
		/>
	<path opacity="0.6" fill="#A3A3A3" enable-background="new    " d="M226.515,38.517c51.354-51.355,134.614-51.354,185.968,0
		c51.355,51.354,51.355,134.614,0.001,185.968c0,0,59.662-78.895-24.807-163.363C303.208-23.348,226.515,38.517,226.515,38.517z"/>
</g>
</svg>
