<?xml version="1.0" encoding="utf-8"?>
<!-- Generator: Adobe Illustrator 16.0.0, SVG Export Plug-In . SVG Version: 6.00 Build 0)  -->
<!DOCTYPE svg PUBLIC "-//W3C//DTD SVG 1.1//EN" "http://www.w3.org/Graphics/SVG/1.1/DTD/svg11.dtd">
<svg version="1.1" id="Layer_1" xmlns="http://www.w3.org/2000/svg" xmlns:xlink="http://www.w3.org/1999/xlink" x="0px" y="0px"
	 width="612px" height="611.043px" viewBox="0 90.478 612 611.043" enable-background="new 0 90.478 612 611.043"
	 xml:space="preserve">
<path fill="#1F5885" d="M352.312,573.712c-3.83,3.83-11.967,4.786-17.232-0.479c-48.346-49.305-118.714-41.646-152.7-7.181
	c-22.499,22.978-34.944,59.836-51.22,82.334c-8.616,12.446-19.626,24.892-31.594,36.858c0,0-14.36,16.276-40.688,16.276
	C26.328,701.52,0,675.193,0,642.642c0-25.37,16.275-40.688,16.275-40.688l0.479-0.479l0.479-0.479
	c11.488-11.488,23.455-22.021,35.423-30.636c22.498-16.276,58.878-28.722,81.376-51.698c33.986-34.465,41.646-105.311-6.702-154.136
	c-2.393-2.393-3.83-6.223-3.351-9.095c0-3.351,1.915-6.702,3.83-8.616l61.75-62.229l224.024,226.417
	C413.584,511.004,352.312,573.712,352.312,573.712z"/>
<path fill="#239AEF" d="M128.288,346.814c-1.915,1.915-3.351,5.265-3.83,8.616c0,3.351,0.958,6.702,3.351,9.095
	c48.347,48.826,41.167,119.672,6.702,154.136c-22.499,22.978-59.357,35.423-81.376,51.697
	c-11.967,8.616-23.934,19.147-35.423,30.636l-0.479,0.479l-0.479,0.479c5.744-5.744-16.276,12.446-16.276,40.688
	c0,16.275,6.702,30.636,17.232,41.646l279.552-279.073l-92.865-106.269l-14.36-14.36
	C190.038,284.585,128.288,346.814,128.288,346.814z"/>
<path fill="#ECECEC" d="M401.617,95.983l204.877,204.398c6.702,6.702,6.702,17.232,0,23.934L473.898,456.912
	c-6.701,6.702-17.231,6.702-23.934,0L244.609,252.514c-6.702-6.702-6.702-17.232,0-23.934L377.684,95.983
	C383.906,89.282,394.915,89.282,401.617,95.983z"/>
<path fill="#9AA7B7" d="M243.651,230.016l239.821,216.844l-87.6,82.812L161.317,313.307L243.651,230.016z"/>
<path fill="#BCC6D4" d="M243.651,230.016l121.107,109.14l-84.728,83.77L161.317,313.785L243.651,230.016z"/>
<path fill="#FFFFFF" d="M337.951,405.215c-7.659,7.659-7.659,19.626,0,27.284c7.66,7.66,19.627,7.66,27.285,0
	c7.659-7.659,7.659-19.626,0-27.284C358.057,398.034,345.611,398.034,337.951,405.215z M408.798,448.296
	c-7.659-7.659-19.627-7.659-27.285,0c-7.659,7.66-7.659,19.627,0,27.285c7.66,7.659,19.627,7.659,27.285,0
	C415.978,467.923,415.978,455.954,408.798,448.296z"/>
<path fill="#CECECE" d="M589.262,283.149c-3.351-3.351-8.615-3.351-11.967,0L473.898,386.067c-3.351,3.351-3.351,8.616,0,11.967
	c3.352,3.351,8.616,3.351,11.968,0l103.396-102.917C592.613,291.766,592.613,286.5,589.262,283.149z M560.541,254.428
	c-3.352-3.351-8.616-3.351-11.967,0L445.178,357.346c-3.352,3.351-3.352,8.616,0,11.967c3.351,3.351,8.615,3.351,11.967,0
	l103.396-102.917C563.892,263.044,563.892,257.779,560.541,254.428z M502.619,196.987c-3.351-3.351-8.616-3.351-11.967,0
	L387.256,299.425c-3.351,3.351-3.351,8.616,0,11.967s8.616,3.351,11.967,0l103.396-102.438
	C505.97,205.603,505.97,200.337,502.619,196.987z M473.898,168.265c-3.351-3.351-8.615-3.351-11.967,0L358.535,270.704
	c-3.351,3.351-3.351,8.616,0,11.967c3.352,3.351,8.616,3.351,11.968,0l103.396-102.438
	C477.25,176.881,477.25,171.616,473.898,168.265z M444.698,139.065c-3.351-3.351-8.616-3.351-11.967,0L329.814,241.982
	c-3.352,3.351-3.352,8.616,0,11.967c3.351,3.351,8.616,3.351,11.967,0l102.917-102.438
	C448.05,148.16,448.05,142.416,444.698,139.065z M415.978,110.344c-3.352-3.351-8.616-3.351-11.968,0L300.614,213.261
	c-3.351,3.351-3.351,8.616,0,11.967c3.351,3.351,8.617,3.351,11.967,0l103.396-102.917
	C419.328,118.961,419.328,113.694,415.978,110.344z"/>
<path fill="#239AEF" d="M606.973,299.904l-205.355-204.4c-6.702-6.702-17.232-6.702-23.934,0l-14.84,14.839l90.951,89.993
	c7.181,13.403,5.265,30.157-7.66,41.646l-11.487,13.403c-7.66,6.702-7.66,18.19,0,24.892c7.659,6.702,20.583,6.223,26.806-0.958
	l-35.423,34.465c-7.181,6.702-7.181,17.711,0,24.413c7.181,6.702,18.189,6.702,25.37,0l16.275-16.276
	c-6.701,6.702-6.701,17.711,0,24.413c6.702,6.702,17.232,6.702,23.934,0l29.679-31.115c13.403-13.882,35.423-13.882,49.304,0
	l22.499,22.02l13.882-13.881C613.675,317.615,613.675,306.604,606.973,299.904L606.973,299.904z"/>
<path fill="#FFFFFF" d="M249.874,290.33c7.66,7.66,7.66,19.626,0,27.285c-7.66,7.659-19.626,7.659-27.285,0
	c-7.66-7.66-7.66-19.626,0-27.285C230.248,282.671,242.214,282.671,249.874,290.33z M292.956,333.412
	c7.66,7.66,7.66,19.626,0,27.285c-7.66,7.66-19.626,7.66-27.285,0c-7.66-7.659-7.66-19.626,0-27.285
	C273.329,325.752,285.775,325.752,292.956,333.412z"/>
<path fill="#0679BF" d="M446.613,241.503l-11.488,13.404c-7.66,6.702-7.66,17.711,0,24.892c7.181,6.223,18.669,6.223,25.37,0.479
	l11.01-10.531c-6.702,6.702-19.148,7.66-26.807,0.958c-7.659-6.702-7.659-17.711,0-24.892l11.488-13.403
	c12.446-11.009,14.36-28.243,7.659-41.167l-90.95-89.514l-9.573,9.574l90.95,89.514C460.975,213.74,459.06,230.494,446.613,241.503z
	 M436.082,328.624c-6.701-6.223-6.701-16.754-0.957-23.455l-8.616,8.137c-7.181,6.702-7.181,17.711,0,24.413s18.189,6.702,25.37,0
	l9.574-9.574C454.272,335.326,443.263,335.326,436.082,328.624z M477.25,337.242c-6.702-6.702-6.702-17.711,0-24.413l-9.574,9.574
	c-6.701,6.702-6.701,17.711,0,24.413c6.702,6.702,17.232,6.702,23.934,0l7.66-7.66C492.567,343.942,483.473,342.985,477.25,337.242z
	 M602.186,328.146l-22.498-21.541c-13.404-13.882-35.424-13.882-48.826,0l-6.701,6.702c13.403-11.009,33.508-10.053,45.953,2.393
	l22.498,21.541l13.883-13.881L602.186,328.146z"/>
</svg>
