<?xml version="1.0" encoding="utf-8"?>
<!-- Generator: Adobe Illustrator 16.0.0, SVG Export Plug-In . SVG Version: 6.00 Build 0)  -->
<!DOCTYPE svg PUBLIC "-//W3C//DTD SVG 1.1//EN" "http://www.w3.org/Graphics/SVG/1.1/DTD/svg11.dtd">
<svg version="1.1" id="Capa_1" xmlns="http://www.w3.org/2000/svg" xmlns:xlink="http://www.w3.org/1999/xlink" x="0px" y="0px"
	 width="420.486px" height="612px" viewBox="95.756 90 420.486 612" enable-background="new 95.756 90 420.486 612"
	 xml:space="preserve">
<path fill="#BDC7D5" d="M472.514,357.95c-21.107-0.656-38.459,16.277-38.459,37.207v-10.375c0-20.393-15.682-38.161-36.073-38.757
	c-21.107-0.656-38.459,16.277-38.459,37.207v-10.375c0-20.393-15.682-38.161-36.073-38.757
	c-21.108-0.656-38.459,16.277-38.459,37.207V240.786c0-20.392-15.681-38.219-36.074-38.816
	c-21.107-0.656-38.459,16.277-38.459,37.265v174.227c-31.66-14.831-66.461-15.006-82.979-14.014
	c-9.799,0.588-19.177,4.915-25.248,12.631c-4.323,5.494-7.519,13.1-6.158,23.188c0.835,6.678,5.486,12.104,11.627,13.535
	l40.519,18.017c9.169,4.076,17.567,9.635,24.874,16.511c22.273,20.964,58.539,63.292,79.604,116.325l3.913,17.131h202.218
	c9.985,0,19.562-3.968,26.623-11.029l12.109-12.109c7.062-7.061,11.027-16.638,11.027-26.623V396.706
	C508.587,376.315,492.906,358.547,472.514,357.95z"/>
<path fill="#259AF1" d="M508.081,702H242.999c-4.506,0-8.16-3.654-8.16-8.16v-86.025c0-4.506,3.654-8.16,8.16-8.16h265.084
	c4.506,0,8.159,3.653,8.159,8.16v86.025C516.241,698.346,512.589,702,508.081,702z"/>
<g>
	<circle fill="#E1E6E9" cx="458.184" cy="650.836" r="23.852"/>
	<path fill="#259AF1" d="M385.844,228.939h-20.001c0-65.583-53.358-118.937-118.938-118.937s-118.938,53.354-118.938,118.937
		h-20.001C107.966,152.328,170.296,90,246.905,90C323.514,90,385.844,152.328,385.844,228.939z"/>
	<path fill="#259AF1" d="M332.506,228.939h-20.002c0-36.171-29.43-65.599-65.599-65.599c-36.169,0-65.599,29.427-65.599,65.599
		h-20.002c0-47.202,38.403-85.6,85.601-85.6S332.506,181.737,332.506,228.939z"/>
</g>
<g>
	<path fill="#76818E" d="M284.991,369.139v48.937c3.406,4.644,16.792,5.636,19.266,0
		C309.486,406.16,284.991,369.139,284.991,369.139z"/>
	<path fill="#76818E" d="M359.619,380.063v48.938c3.405,4.643,16.792,5.635,19.266,0
		C384.114,417.084,359.619,380.063,359.619,380.063z"/>
	<path fill="#76818E" d="M434.326,389.615v48.938c3.406,4.644,16.792,5.635,19.267,0
		C458.821,426.637,434.326,389.615,434.326,389.615z"/>
</g>
</svg>
