<?xml version="1.0" encoding="utf-8"?>
<!-- Generator: Adobe Illustrator 16.0.0, SVG Export Plug-In . SVG Version: 6.00 Build 0)  -->
<!DOCTYPE svg PUBLIC "-//W3C//DTD SVG 1.1//EN" "http://www.w3.org/Graphics/SVG/1.1/DTD/svg11.dtd">
<svg version="1.1" id="Layer_1" xmlns="http://www.w3.org/2000/svg" xmlns:xlink="http://www.w3.org/1999/xlink" x="0px" y="0px"
	 width="263px" height="238.605px" viewBox="188 10 263 238.605" enable-background="new 188 10 263 238.605" xml:space="preserve">
<polygon fill="#181818" points="350.079,89.181 188,191.242 288.921,248.605 353.753,207.781 366.217,187.369 386.168,187.369 
	451,146.545 "/>
<polygon fill="#1F5985" points="350.079,64.251 188,166.312 288.921,223.678 451,121.616 "/>
<polygon fill="#269AF2" points="350.079,39.323 188,141.384 288.921,198.748 451,96.688 "/>
<polygon fill="#BEC8D6" points="350.079,14.394 285.248,55.218 285.248,75.63 252.832,75.63 188,116.455 288.921,173.819 
	451,71.758 "/>
<polygon fill="#E6E2E0" points="285.248,55.218 252.832,75.63 353.752,132.995 369.961,135.48 386.168,112.583 "/>
<polygon fill="#CCC4C1" points="353.752,132.995 353.752,207.781 386.168,187.369 386.168,112.583 "/>
</svg>
