<svg xmlns="http://www.w3.org/2000/svg" width="75" height="64" viewBox="0 0 75 64">
  <metadata><?xpacket begin="﻿" id="W5M0MpCehiHzreSzNTczkc9d"?>
<x:xmpmeta xmlns:x="adobe:ns:meta/" x:xmptk="Adobe XMP Core 5.6-c140 79.160451, 2017/05/06-01:08:21        ">
   <rdf:RDF xmlns:rdf="http://www.w3.org/1999/02/22-rdf-syntax-ns#">
      <rdf:Description rdf:about=""/>
   </rdf:RDF>
</x:xmpmeta>
                                                                                                    
                                                                                                    
                                                                                                    
                                                                                                    
                                                                                                    
                                                                                                    
                                                                                                    
                                                                                                    
                                                                                                    
                                                                                                    
                                                                                                    
                                                                                                    
                                                                                                    
                                                                                                    
                                                                                                    
                                                                                                    
                                                                                                    
                                                                                                    
                                                                                                    
                                                                                                    
                           
<?xpacket end="w"?></metadata>
<defs>
    <style>
      .cls-1 {
        fill: #939395;
        fill-rule: evenodd;
      }
    </style>
  </defs>
  <path id="images" class="cls-1" d="M1158.5,6832h-60a2.509,2.509,0,0,0-2.5,2.51v2.51h-2.5a2.509,2.509,0,0,0-2.5,2.51v2.51h-2.5a2.5,2.5,0,0,0-2.5,2.51v48.94a2.509,2.509,0,0,0,2.5,2.51h60a2.509,2.509,0,0,0,2.5-2.51v-2.51h2.5a2.509,2.509,0,0,0,2.5-2.51v-2.51h2.5a2.5,2.5,0,0,0,2.5-2.51v-48.94A2.509,2.509,0,0,0,1158.5,6832Zm-70,12.55h60v28.03l-6.56-7.52a1.277,1.277,0,0,0-1.88,0l-7.92,9.08-21.56-19.23a1.229,1.229,0,0,0-1.66,0l-20.42,18.22v-28.58Zm60,45.19v3.75h-60v-17.01l21.25-18.96,21.67,19.34a1.311,1.311,0,0,0,.91.31,1.245,1.245,0,0,0,.86-0.42l7.81-8.96,7.5,8.61v13.34Zm5-1.27H1151v-43.92a2.5,2.5,0,0,0-2.5-2.51h-55v-2.51h60v48.94h0Zm5-5.02H1156v-43.92a2.509,2.509,0,0,0-2.5-2.51h-55v-2.51h60v48.94Zm-27.5-31.37a5.02,5.02,0,1,0,5,5.02A5.013,5.013,0,0,0,1131,6852.08Zm0,7.53a2.51,2.51,0,1,1,2.5-2.51A2.509,2.509,0,0,1,1131,6859.61Z" transform="translate(-1086 -6832)"/>
</svg>
