<svg xmlns="http://www.w3.org/2000/svg" width="30" height="30" viewBox="0 0 30 30">
  <metadata><?xpacket begin="﻿" id="W5M0MpCehiHzreSzNTczkc9d"?>
<x:xmpmeta xmlns:x="adobe:ns:meta/" x:xmptk="Adobe XMP Core 5.6-c140 79.160451, 2017/05/06-01:08:21        ">
   <rdf:RDF xmlns:rdf="http://www.w3.org/1999/02/22-rdf-syntax-ns#">
      <rdf:Description rdf:about=""/>
   </rdf:RDF>
</x:xmpmeta>
                                                                                                    
                                                                                                    
                                                                                                    
                                                                                                    
                                                                                                    
                                                                                                    
                                                                                                    
                                                                                                    
                                                                                                    
                                                                                                    
                                                                                                    
                                                                                                    
                                                                                                    
                                                                                                    
                                                                                                    
                                                                                                    
                                                                                                    
                                                                                                    
                                                                                                    
                                                                                                    
                           
<?xpacket end="w"?></metadata>
<defs>
    <style>
      .cls-1 {
        fill: #0e1a35;
        fill-rule: evenodd;
      }
    </style>
  </defs>
  <path id="key" class="cls-1" d="M454.828,8426.42l-0.766-.76v-6.18a4.476,4.476,0,0,0-7.181-3.57,8.878,8.878,0,0,0-11.5,12.58l-3.357,3.35H430.6a0.592,0.592,0,0,0-.586.59v1.07h-1.075a0.592,0.592,0,0,0-.586.59v1.08h-1.075a0.584,0.584,0,0,0-.586.58v1.08h-1.075a0.584,0.584,0,0,0-.414.17l-0.035.03a0.591,0.591,0,0,0-.172.42v3.8a0.592,0.592,0,0,0,.586.59h3.873a0.594,0.594,0,0,0,.414-0.18l6.463-6.46a0.586,0.586,0,1,0-.828-0.83l-6.292,6.29h-3.044V8438h1.11a0.585,0.585,0,0,0,.586-0.59v-1.07h1.075a0.585,0.585,0,0,0,.586-0.59v-1.07H430.6a0.592,0.592,0,0,0,.586-0.59v-1.07h1.075a0.594,0.594,0,0,0,.414-0.18l3.385-3.38a8.433,8.433,0,0,0,.623.69,8.771,8.771,0,0,0,5.892,2.59v9.8a2.461,2.461,0,0,0,2.46,2.46h7.5a2.461,2.461,0,0,0,2.461-2.46v-15.7A0.591,0.591,0,0,0,454.828,8426.42Zm-5.242-10.25a3.308,3.308,0,0,1,3.3,3.31v5l-1.053-1.05a0.015,0.015,0,0,0-.016-0.01,8.839,8.839,0,0,0-2.583-5.82,9.335,9.335,0,0,0-1.231-1.03A3.354,3.354,0,0,1,449.586,8416.17Zm-3.305,4.97v-1.29a1.358,1.358,0,0,1,.421.29,1.387,1.387,0,0,1,.416,1,1.421,1.421,0,1,1-2.425-1,1.337,1.337,0,0,1,.416-0.29v1.29A0.586,0.586,0,1,0,446.281,8421.14Zm-3.319,10.44a7.705,7.705,0,0,1,0-15.41,7.816,7.816,0,0,1,3.041.62,4.5,4.5,0,0,0-.807,1.81,2.525,2.525,0,0,0-1.332.71,2.593,2.593,0,1,0,3.666,0,2.617,2.617,0,0,0-1.143-.67,3.3,3.3,0,0,1,.672-1.29,7.747,7.747,0,0,1,1.35,1.08A7.705,7.705,0,0,1,442.962,8431.58Zm10.866,10.96a1.292,1.292,0,0,1-1.289,1.29h-7.5a1.292,1.292,0,0,1-1.289-1.29v-9.82a8.877,8.877,0,0,0,8.01-7.71l2.068,2.07v15.46Zm-13.849-21.65a0.587,0.587,0,1,0-.829-0.83,5.406,5.406,0,0,0,0,7.63,0.59,0.59,0,0,0,.829,0,0.587,0.587,0,0,0,0-.83A4.228,4.228,0,0,1,439.979,8420.89Zm1.863,7.06h-0.01a0.576,0.576,0,0,0-.719.41,0.587,0.587,0,0,0,.408.72,0.875,0.875,0,0,0,.16.02A0.587,0.587,0,0,0,441.842,8427.95Zm9.437,12.71H446.3a0.59,0.59,0,0,0,0,1.18h4.98A0.59,0.59,0,0,0,451.279,8440.66Zm-13.44-7.79a0.587,0.587,0,0,0-1,.41,0.6,0.6,0,0,0,.172.42,0.59,0.59,0,0,0,.829,0A0.589,0.589,0,0,0,437.839,8432.87Z" transform="translate(-425 -8415)"/>
</svg>
