<svg xmlns="http://www.w3.org/2000/svg" width="36" height="30" viewBox="0 0 36 30">
  <metadata><?xpacket begin="﻿" id="W5M0MpCehiHzreSzNTczkc9d"?>
<x:xmpmeta xmlns:x="adobe:ns:meta/" x:xmptk="Adobe XMP Core 5.6-c140 79.160451, 2017/05/06-01:08:21        ">
   <rdf:RDF xmlns:rdf="http://www.w3.org/1999/02/22-rdf-syntax-ns#">
      <rdf:Description rdf:about=""/>
   </rdf:RDF>
</x:xmpmeta>
                                                                                                    
                                                                                                    
                                                                                                    
                                                                                                    
                                                                                                    
                                                                                                    
                                                                                                    
                                                                                                    
                                                                                                    
                                                                                                    
                                                                                                    
                                                                                                    
                                                                                                    
                                                                                                    
                                                                                                    
                                                                                                    
                                                                                                    
                                                                                                    
                                                                                                    
                                                                                                    
                           
<?xpacket end="w"?></metadata>
<defs>
    <style>
      .cls-1 {
        fill: #0e1a35;
        fill-rule: evenodd;
      }
    </style>
  </defs>
  <path id="responsive" class="cls-1" d="M361.636,8435.83a0.832,0.832,0,0,1,.819.84A0.819,0.819,0,1,1,361.636,8435.83Zm-13.909,5a0.832,0.832,0,0,1,.818.84,0.818,0.818,0,1,1-1.636,0A0.832,0.832,0,0,1,347.727,8440.83ZM375.545,8415H347.727a2.431,2.431,0,0,0-2.454,2.5v8.33a0.818,0.818,0,1,0,1.636,0v-8.33a0.777,0.777,0,0,1,.818-0.83h27.818a0.778,0.778,0,0,1,.819.83v20a0.778,0.778,0,0,1-.819.83H355.909a0.785,0.785,0,0,0-.818.84,0.777,0.777,0,0,0,.818.83h1.636v2.5a0.777,0.777,0,0,1-.818.83h-0.818a0.785,0.785,0,0,0-.818.84,0.777,0.777,0,0,0,.818.83h11.455a0.777,0.777,0,0,0,.818-0.83,0.785,0.785,0,0,0-.818-0.84h-0.818a0.778,0.778,0,0,1-.819-0.83V8440h9.818a2.432,2.432,0,0,0,2.455-2.5v-20A2.432,2.432,0,0,0,375.545,8415Zm-16.527,28.33a2.5,2.5,0,0,0,.164-0.83V8440h4.909v2.5a2.523,2.523,0,0,0,.163.83h-5.236Zm14.891-10h-18a0.785,0.785,0,0,0-.818.84,0.777,0.777,0,0,0,.818.83h18a0.777,0.777,0,0,0,.818-0.83A0.785,0.785,0,0,0,373.909,8433.33Zm-22.909-5h-6.545a2.438,2.438,0,0,0-2.455,2.5v11.67a2.432,2.432,0,0,0,2.455,2.5H351a2.432,2.432,0,0,0,2.455-2.5v-11.67A2.438,2.438,0,0,0,351,8428.33Zm0.818,14.17a0.777,0.777,0,0,1-.818.83h-6.545a0.778,0.778,0,0,1-.819-0.83v-11.67a0.778,0.778,0,0,1,.819-0.83H351a0.777,0.777,0,0,1,.818.83v11.67Z" transform="translate(-342 -8415)"/>
</svg>
