<svg xmlns="http://www.w3.org/2000/svg" width="30" height="30" viewBox="0 0 30 30">
  <metadata><?xpacket begin="﻿" id="W5M0MpCehiHzreSzNTczkc9d"?>
<x:xmpmeta xmlns:x="adobe:ns:meta/" x:xmptk="Adobe XMP Core 5.6-c140 79.160451, 2017/05/06-01:08:21        ">
   <rdf:RDF xmlns:rdf="http://www.w3.org/1999/02/22-rdf-syntax-ns#">
      <rdf:Description rdf:about=""/>
   </rdf:RDF>
</x:xmpmeta>
                                                                                                    
                                                                                                    
                                                                                                    
                                                                                                    
                                                                                                    
                                                                                                    
                                                                                                    
                                                                                                    
                                                                                                    
                                                                                                    
                                                                                                    
                                                                                                    
                                                                                                    
                                                                                                    
                                                                                                    
                                                                                                    
                                                                                                    
                                                                                                    
                                                                                                    
                                                                                                    
                           
<?xpacket end="w"?></metadata>
<defs>
    <style>
      .cls-1 {
        fill: #0e1a35;
        fill-rule: evenodd;
      }
    </style>
  </defs>
  <path id="search" class="cls-1" d="M614.045,8439.68l-7.636-7.02a1.375,1.375,0,0,0-1.909.07l-0.409.41-1.159-1.16a10.107,10.107,0,0,0,2.522-6.75,10.227,10.227,0,1,0-10.227,10.22,10.4,10.4,0,0,0,5.114-1.36,0.748,0.748,0,0,0,.273-0.95,0.766,0.766,0,0,0-.955-0.28,9.144,9.144,0,0,1-4.432,1.16,8.739,8.739,0,0,1-8.863-8.79,8.864,8.864,0,1,1,17.727,0,8.741,8.741,0,0,1-2.523,6.2,0.623,0.623,0,0,0-.2.48v0.14a0.6,0.6,0,0,0,.2.47l1.568,1.57-0.409.41a1.383,1.383,0,0,0-.068,1.91l7.023,7.64a2.99,2.99,0,0,0,2.25.95,3.054,3.054,0,0,0,3.068-3.07A3.215,3.215,0,0,0,614.045,8439.68Zm-2.113,3.96a1.6,1.6,0,0,1-1.227-.55l-7.023-7.64,1.772-1.77,7.637,7.02a1.724,1.724,0,0,1,.545,1.23A1.689,1.689,0,0,1,611.932,8443.64Zm-16.705-25.91a7.5,7.5,0,1,0,7.5,7.5A7.478,7.478,0,0,0,595.227,8417.73Zm0,13.63a6.135,6.135,0,1,1,6.137-6.13A6.1,6.1,0,0,1,595.227,8431.36Z" transform="translate(-585 -8415)"/>
</svg>
