<?xml version="1.0" encoding="utf-8"?>
<!-- Generator: Adobe Illustrator 16.0.4, SVG Export Plug-In . SVG Version: 6.00 Build 0)  -->
<!DOCTYPE svg PUBLIC "-//W3C//DTD SVG 1.1//EN" "http://www.w3.org/Graphics/SVG/1.1/DTD/svg11.dtd">
<svg version="1.1" id="Layer_1" xmlns="http://www.w3.org/2000/svg" xmlns:xlink="http://www.w3.org/1999/xlink" x="0px" y="0px"
	 width="913px" height="747px" viewBox="0 0 913 747" enable-background="new 0 0 913 747" xml:space="preserve">
<path fill="#F5F5F5" d="M774.056,128.793H138.945C108.046,128.793,83,153.84,83,184.738v377.525
	c0,30.896,25.046,55.944,55.945,55.944h635.111c30.896,0,55.944-25.046,55.944-55.944V184.738
	C830,153.84,804.953,128.793,774.056,128.793z"/>
<g>
	<path fill="#FF4B55" d="M86.077,166.441h740.845c-7.581-21.91-28.381-37.647-52.866-37.647H138.945
		C114.457,128.793,93.659,144.531,86.077,166.441z"/>
	<rect x="83" y="279.381" fill="#FF4B55" width="747" height="37.646"/>
	<rect x="83" y="204.083" fill="#FF4B55" width="747" height="37.646"/>
	<path fill="#FF4B55" d="M83,379.444c0,7.112,5.768,12.88,12.88,12.88H830v-37.648H83V379.444z"/>
	<rect x="83" y="505.275" fill="#FF4B55" width="747" height="37.647"/>
	<path fill="#FF4B55" d="M826.923,580.559H86.077c7.582,21.91,28.381,37.648,52.868,37.648h635.111
		C798.543,618.207,819.341,602.469,826.923,580.559z"/>
	<rect x="83" y="429.978" fill="#FF4B55" width="747" height="37.646"/>
</g>
<path fill="#41479B" d="M95.88,392.324h321.983c7.112,0,12.88-5.768,12.88-12.88V141.672c0-7.114-5.768-12.88-12.88-12.88H138.945
	C108.046,128.793,83,153.84,83,184.738v194.706C83,386.558,88.768,392.324,95.88,392.324z"/>
<g>
	<path fill="#F5F5F5" d="M119.167,158.354l2.851,8.55l9.012,0.069c1.167,0.01,1.65,1.498,0.712,2.191l-7.25,5.353l2.719,8.592
		c0.353,1.112-0.915,2.034-1.864,1.354l-7.332-5.239l-7.332,5.241c-0.95,0.68-2.214-0.242-1.864-1.354l2.719-8.592l-7.25-5.353
		c-0.938-0.695-0.455-2.183,0.712-2.191l9.012-0.069l2.851-8.549C117.232,157.247,118.796,157.247,119.167,158.354z"/>
	<path fill="#F5F5F5" d="M119.167,203.078l2.851,8.549l9.012,0.069c1.167,0.01,1.65,1.497,0.712,2.191l-7.25,5.354l2.719,8.592
		c0.353,1.112-0.915,2.034-1.864,1.354l-7.332-5.239l-7.332,5.241c-0.95,0.678-2.214-0.242-1.864-1.354l2.719-8.592l-7.25-5.354
		c-0.938-0.694-0.455-2.181,0.712-2.191l9.012-0.069l2.851-8.549C117.232,201.972,118.796,201.972,119.167,203.078z"/>
	<path fill="#F5F5F5" d="M119.167,247.803l2.851,8.55l9.012,0.068c1.167,0.01,1.65,1.497,0.712,2.191l-7.25,5.354l2.719,8.592
		c0.353,1.112-0.915,2.034-1.864,1.354l-7.332-5.239l-7.332,5.241c-0.95,0.679-2.214-0.241-1.864-1.354l2.719-8.592l-7.25-5.354
		c-0.938-0.694-0.455-2.181,0.712-2.191l9.012-0.069l2.851-8.549C117.232,246.695,118.796,246.695,119.167,247.803z"/>
	<path fill="#F5F5F5" d="M119.167,292.526l2.851,8.55l9.012,0.068c1.167,0.01,1.65,1.499,0.712,2.191l-7.25,5.354l2.719,8.592
		c0.353,1.112-0.915,2.034-1.864,1.354l-7.332-5.239l-7.332,5.24c-0.95,0.679-2.214-0.242-1.864-1.354l2.719-8.593l-7.25-5.354
		c-0.938-0.691-0.455-2.181,0.712-2.191l9.012-0.068l2.851-8.55C117.232,291.419,118.796,291.419,119.167,292.526z"/>
	<path fill="#F5F5F5" d="M119.167,337.25l2.851,8.55l9.012,0.068c1.167,0.011,1.65,1.497,0.712,2.191l-7.25,5.354l2.719,8.592
		c0.353,1.112-0.915,2.034-1.864,1.354l-7.332-5.239l-7.332,5.24c-0.95,0.679-2.214-0.242-1.864-1.354l2.719-8.592l-7.25-5.354
		c-0.938-0.694-0.455-2.182,0.712-2.191l9.012-0.069l2.851-8.549C117.232,336.145,118.796,336.145,119.167,337.25z"/>
	<path fill="#F5F5F5" d="M153.88,180.281l2.851,8.55l9.012,0.068c1.167,0.01,1.65,1.499,0.712,2.191l-7.25,5.354l2.72,8.592
		c0.353,1.111-0.915,2.034-1.865,1.354l-7.332-5.24l-7.331,5.24c-0.95,0.679-2.215-0.242-1.865-1.354l2.72-8.592l-7.25-5.354
		c-0.938-0.694-0.455-2.181,0.712-2.191l9.012-0.068l2.851-8.55C151.946,179.175,153.511,179.175,153.88,180.281z"/>
	<path fill="#F5F5F5" d="M153.88,225.006l2.851,8.55l9.012,0.068c1.167,0.01,1.65,1.499,0.712,2.191l-7.25,5.354l2.72,8.592
		c0.353,1.112-0.915,2.034-1.865,1.354l-7.332-5.241l-7.331,5.241c-0.95,0.678-2.215-0.241-1.865-1.354l2.72-8.592l-7.25-5.354
		c-0.938-0.691-0.455-2.181,0.712-2.191l9.012-0.068l2.851-8.55C151.946,223.898,153.511,223.898,153.88,225.006z"/>
	<path fill="#F5F5F5" d="M153.88,269.729l2.851,8.55l9.012,0.069c1.167,0.01,1.65,1.497,0.712,2.191l-7.25,5.354l2.72,8.592
		c0.353,1.112-0.915,2.034-1.865,1.354l-7.332-5.241l-7.331,5.241c-0.95,0.678-2.215-0.242-1.865-1.354l2.72-8.592l-7.25-5.354
		c-0.938-0.695-0.455-2.181,0.712-2.191l9.012-0.069l2.851-8.55C151.946,268.623,153.511,268.623,153.88,269.729z"/>
	<path fill="#F5F5F5" d="M153.88,314.453l2.851,8.55l9.012,0.068c1.167,0.011,1.65,1.497,0.712,2.191l-7.25,5.354l2.72,8.593
		c0.353,1.111-0.915,2.033-1.865,1.354l-7.332-5.241l-7.331,5.241c-0.95,0.68-2.215-0.242-1.865-1.354l2.72-8.593l-7.25-5.354
		c-0.938-0.694-0.455-2.181,0.712-2.191l9.012-0.068l2.851-8.55C151.946,313.348,153.511,313.348,153.88,314.453z"/>
	<path fill="#F5F5F5" d="M188.594,158.354l2.851,8.55l9.012,0.069c1.167,0.01,1.65,1.498,0.712,2.191l-7.25,5.353l2.719,8.592
		c0.353,1.112-0.915,2.034-1.864,1.354l-7.332-5.241l-7.332,5.241c-0.95,0.68-2.215-0.242-1.864-1.354l2.719-8.592l-7.25-5.353
		c-0.938-0.695-0.455-2.183,0.712-2.191l9.012-0.069l2.851-8.55C186.659,157.247,188.225,157.247,188.594,158.354z"/>
	<path fill="#F5F5F5" d="M188.594,203.078l2.851,8.549l9.012,0.069c1.167,0.01,1.65,1.497,0.712,2.191l-7.25,5.354l2.719,8.592
		c0.353,1.112-0.915,2.034-1.864,1.354l-7.332-5.241l-7.332,5.241c-0.95,0.678-2.215-0.242-1.864-1.354l2.719-8.592l-7.25-5.354
		c-0.938-0.695-0.455-2.181,0.712-2.191l9.012-0.069l2.851-8.549C186.659,201.972,188.225,201.972,188.594,203.078z"/>
	<path fill="#F5F5F5" d="M188.594,247.803l2.851,8.55l9.012,0.068c1.167,0.01,1.65,1.497,0.712,2.191l-7.25,5.354l2.719,8.592
		c0.353,1.112-0.915,2.034-1.864,1.354l-7.332-5.241l-7.332,5.241c-0.95,0.678-2.215-0.241-1.864-1.354l2.719-8.592l-7.25-5.354
		c-0.938-0.694-0.455-2.181,0.712-2.191l9.012-0.068l2.851-8.55C186.659,246.695,188.225,246.695,188.594,247.803z"/>
	<path fill="#F5F5F5" d="M188.594,292.526l2.851,8.55l9.012,0.068c1.167,0.01,1.65,1.499,0.712,2.191l-7.25,5.354l2.719,8.592
		c0.353,1.112-0.915,2.034-1.864,1.354l-7.332-5.241l-7.332,5.241c-0.95,0.678-2.215-0.242-1.864-1.354l2.719-8.592l-7.25-5.354
		c-0.938-0.691-0.455-2.181,0.712-2.191l9.012-0.068l2.851-8.55C186.659,291.419,188.225,291.419,188.594,292.526z"/>
	<path fill="#F5F5F5" d="M188.594,337.25l2.851,8.55l9.012,0.068c1.167,0.011,1.65,1.497,0.712,2.191l-7.25,5.354l2.719,8.592
		c0.353,1.112-0.915,2.034-1.864,1.354l-7.332-5.241l-7.332,5.241c-0.95,0.678-2.215-0.242-1.864-1.354l2.719-8.592l-7.25-5.354
		c-0.938-0.694-0.455-2.181,0.712-2.191l9.012-0.068l2.851-8.55C186.659,336.145,188.225,336.145,188.594,337.25z"/>
	<path fill="#F5F5F5" d="M223.309,180.281l2.851,8.55l9.012,0.068c1.167,0.01,1.65,1.499,0.712,2.191l-7.25,5.354l2.72,8.592
		c0.353,1.111-0.915,2.034-1.865,1.354l-7.332-5.24l-7.331,5.24c-0.95,0.679-2.215-0.242-1.865-1.354l2.72-8.592l-7.25-5.354
		c-0.938-0.694-0.455-2.181,0.712-2.191l9.012-0.068l2.851-8.55C221.373,179.175,222.94,179.175,223.309,180.281z"/>
	<path fill="#F5F5F5" d="M223.309,225.006l2.851,8.55l9.012,0.068c1.167,0.01,1.65,1.499,0.712,2.191l-7.25,5.354l2.72,8.592
		c0.353,1.112-0.915,2.034-1.865,1.354l-7.332-5.241l-7.331,5.241c-0.95,0.678-2.215-0.241-1.865-1.354l2.72-8.592l-7.25-5.354
		c-0.938-0.691-0.455-2.181,0.712-2.191l9.012-0.068l2.851-8.55C221.373,223.898,222.94,223.898,223.309,225.006z"/>
	<path fill="#F5F5F5" d="M223.309,269.729l2.851,8.55l9.012,0.069c1.167,0.01,1.65,1.497,0.712,2.191l-7.25,5.354l2.72,8.592
		c0.353,1.112-0.915,2.034-1.865,1.354l-7.332-5.241l-7.331,5.241c-0.95,0.678-2.215-0.242-1.865-1.354l2.72-8.592l-7.25-5.354
		c-0.938-0.695-0.455-2.181,0.712-2.191l9.012-0.069l2.851-8.55C221.373,268.623,222.94,268.623,223.309,269.729z"/>
	<path fill="#F5F5F5" d="M223.309,314.453l2.851,8.55l9.012,0.068c1.167,0.011,1.65,1.497,0.712,2.191l-7.25,5.354l2.72,8.593
		c0.353,1.111-0.915,2.033-1.865,1.354l-7.332-5.241l-7.331,5.241c-0.95,0.68-2.215-0.242-1.865-1.354l2.72-8.593l-7.25-5.354
		c-0.938-0.694-0.455-2.181,0.712-2.191l9.012-0.068l2.851-8.55C221.373,313.348,222.94,313.348,223.309,314.453z"/>
	<path fill="#F5F5F5" d="M258.022,158.354l2.851,8.55l9.012,0.069c1.167,0.01,1.65,1.498,0.712,2.191l-7.25,5.353l2.719,8.592
		c0.353,1.112-0.915,2.034-1.864,1.354l-7.333-5.239l-7.332,5.241c-0.95,0.68-2.214-0.242-1.864-1.354l2.719-8.592l-7.25-5.353
		c-0.938-0.695-0.455-2.183,0.712-2.191l9.012-0.069l2.851-8.549C256.088,157.247,257.653,157.247,258.022,158.354z"/>
	<path fill="#F5F5F5" d="M258.022,203.078l2.851,8.549l9.012,0.069c1.167,0.01,1.65,1.497,0.712,2.191l-7.25,5.354l2.719,8.592
		c0.353,1.112-0.915,2.034-1.864,1.354l-7.333-5.241l-7.332,5.241c-0.95,0.678-2.214-0.242-1.864-1.354l2.719-8.592l-7.25-5.354
		c-0.938-0.695-0.455-2.181,0.712-2.191l9.012-0.069l2.851-8.549C256.088,201.972,257.653,201.972,258.022,203.078z"/>
	<path fill="#F5F5F5" d="M258.022,247.803l2.851,8.55l9.012,0.068c1.167,0.01,1.65,1.497,0.712,2.191l-7.25,5.354l2.719,8.592
		c0.353,1.112-0.915,2.034-1.864,1.354l-7.333-5.242l-7.332,5.241c-0.95,0.678-2.214-0.242-1.864-1.354l2.719-8.592l-7.25-5.354
		c-0.938-0.694-0.455-2.181,0.712-2.191l9.012-0.069l2.851-8.549C256.088,246.695,257.653,246.695,258.022,247.803z"/>
	<path fill="#F5F5F5" d="M258.022,292.526l2.851,8.55l9.012,0.068c1.167,0.01,1.65,1.499,0.712,2.191l-7.25,5.354l2.719,8.592
		c0.353,1.112-0.915,2.034-1.864,1.354l-7.333-5.241l-7.332,5.241c-0.95,0.678-2.214-0.242-1.864-1.354l2.719-8.592l-7.25-5.354
		c-0.938-0.691-0.455-2.181,0.712-2.191l9.012-0.068l2.851-8.55C256.088,291.419,257.653,291.419,258.022,292.526z"/>
	<path fill="#F5F5F5" d="M258.022,337.25l2.851,8.55l9.012,0.068c1.167,0.011,1.65,1.497,0.712,2.191l-7.25,5.354l2.719,8.592
		c0.353,1.112-0.915,2.034-1.864,1.354l-7.333-5.241l-7.332,5.241c-0.95,0.678-2.214-0.242-1.864-1.354l2.719-8.592l-7.25-5.354
		c-0.938-0.694-0.455-2.181,0.712-2.191l9.012-0.068l2.851-8.55C256.088,336.145,257.653,336.145,258.022,337.25z"/>
	<path fill="#F5F5F5" d="M292.736,180.281l2.851,8.55l9.012,0.068c1.167,0.01,1.65,1.499,0.712,2.191l-7.25,5.354l2.72,8.592
		c0.353,1.111-0.915,2.034-1.865,1.354l-7.332-5.24l-7.331,5.24c-0.95,0.679-2.215-0.242-1.865-1.354l2.72-8.592l-7.25-5.354
		c-0.938-0.694-0.455-2.181,0.712-2.191l9.012-0.068l2.851-8.55C290.803,179.175,292.367,179.175,292.736,180.281z"/>
	<path fill="#F5F5F5" d="M292.736,225.006l2.851,8.55l9.012,0.068c1.167,0.01,1.65,1.499,0.712,2.191l-7.25,5.354l2.72,8.592
		c0.353,1.112-0.915,2.034-1.865,1.354l-7.332-5.241l-7.331,5.241c-0.95,0.678-2.215-0.241-1.865-1.354l2.72-8.592l-7.25-5.354
		c-0.938-0.691-0.455-2.181,0.712-2.191l9.012-0.068l2.851-8.55C290.803,223.898,292.367,223.898,292.736,225.006z"/>
	<path fill="#F5F5F5" d="M292.736,269.729l2.851,8.55l9.012,0.069c1.167,0.01,1.65,1.497,0.712,2.191l-7.25,5.354l2.72,8.592
		c0.353,1.112-0.915,2.034-1.865,1.354l-7.332-5.241l-7.331,5.241c-0.95,0.678-2.215-0.242-1.865-1.354l2.72-8.592l-7.25-5.354
		c-0.938-0.695-0.455-2.181,0.712-2.191l9.012-0.069l2.851-8.55C290.803,268.623,292.367,268.623,292.736,269.729z"/>
	<path fill="#F5F5F5" d="M292.736,314.453l2.851,8.55l9.012,0.068c1.167,0.011,1.65,1.497,0.712,2.191l-7.25,5.354l2.72,8.593
		c0.353,1.111-0.915,2.033-1.865,1.354l-7.332-5.241l-7.331,5.241c-0.95,0.68-2.215-0.242-1.865-1.354l2.72-8.593l-7.25-5.354
		c-0.938-0.694-0.455-2.181,0.712-2.191l9.012-0.068l2.851-8.55C290.803,313.348,292.367,313.348,292.736,314.453z"/>
	<path fill="#F5F5F5" d="M327.451,158.354l2.851,8.55l9.012,0.069c1.167,0.01,1.65,1.498,0.712,2.191l-7.25,5.353l2.719,8.592
		c0.353,1.112-0.915,2.034-1.864,1.354l-7.332-5.241l-7.332,5.241c-0.95,0.68-2.215-0.242-1.864-1.354l2.719-8.592l-7.25-5.353
		c-0.938-0.695-0.455-2.183,0.712-2.191l9.012-0.069l2.851-8.55C325.515,157.247,327.082,157.247,327.451,158.354z"/>
	<path fill="#F5F5F5" d="M327.451,203.078l2.851,8.549l9.012,0.069c1.167,0.01,1.65,1.497,0.712,2.191l-7.25,5.354l2.719,8.592
		c0.353,1.112-0.915,2.034-1.864,1.354l-7.332-5.241l-7.332,5.241c-0.95,0.678-2.215-0.242-1.864-1.354l2.719-8.592l-7.25-5.354
		c-0.938-0.695-0.455-2.181,0.712-2.191l9.012-0.069l2.851-8.549C325.515,201.972,327.082,201.972,327.451,203.078z"/>
	<path fill="#F5F5F5" d="M327.451,247.803l2.851,8.55l9.012,0.068c1.167,0.01,1.65,1.497,0.712,2.191l-7.25,5.354l2.719,8.592
		c0.353,1.112-0.915,2.034-1.864,1.354l-7.332-5.241l-7.332,5.241c-0.95,0.678-2.215-0.241-1.864-1.354l2.719-8.592l-7.25-5.354
		c-0.938-0.694-0.455-2.181,0.712-2.191l9.012-0.068l2.851-8.55C325.515,246.695,327.082,246.695,327.451,247.803z"/>
	<path fill="#F5F5F5" d="M327.451,292.526l2.851,8.55l9.012,0.068c1.167,0.01,1.65,1.499,0.712,2.191l-7.25,5.354l2.719,8.592
		c0.353,1.112-0.915,2.034-1.864,1.354l-7.332-5.241l-7.332,5.241c-0.95,0.678-2.215-0.242-1.864-1.354l2.719-8.592l-7.25-5.354
		c-0.938-0.691-0.455-2.181,0.712-2.191l9.012-0.068l2.851-8.55C325.515,291.419,327.082,291.419,327.451,292.526z"/>
	<path fill="#F5F5F5" d="M327.451,337.25l2.851,8.55l9.012,0.068c1.167,0.011,1.65,1.497,0.712,2.191l-7.25,5.354l2.719,8.592
		c0.353,1.112-0.915,2.034-1.864,1.354l-7.332-5.241l-7.332,5.241c-0.95,0.678-2.215-0.242-1.864-1.354l2.719-8.592l-7.25-5.354
		c-0.938-0.694-0.455-2.181,0.712-2.191l9.012-0.068l2.851-8.55C325.515,336.145,327.082,336.145,327.451,337.25z"/>
	<path fill="#F5F5F5" d="M362.165,180.281l2.851,8.55l9.012,0.068c1.167,0.01,1.65,1.499,0.712,2.191l-7.25,5.354l2.72,8.592
		c0.353,1.111-0.915,2.034-1.865,1.354l-7.332-5.24l-7.331,5.24c-0.95,0.679-2.215-0.242-1.865-1.354l2.72-8.592l-7.25-5.354
		c-0.938-0.694-0.455-2.181,0.712-2.191l9.012-0.068l2.851-8.55C360.23,179.175,361.796,179.175,362.165,180.281z"/>
	<path fill="#F5F5F5" d="M362.165,225.006l2.851,8.55l9.012,0.068c1.167,0.01,1.65,1.499,0.712,2.191l-7.25,5.354l2.72,8.592
		c0.353,1.112-0.915,2.034-1.865,1.354l-7.332-5.241l-7.331,5.241c-0.95,0.678-2.215-0.241-1.865-1.354l2.72-8.592l-7.25-5.354
		c-0.938-0.691-0.455-2.181,0.712-2.191l9.012-0.068l2.851-8.55C360.23,223.898,361.796,223.898,362.165,225.006z"/>
	<path fill="#F5F5F5" d="M362.165,269.729l2.851,8.55l9.012,0.069c1.167,0.01,1.65,1.497,0.712,2.191l-7.25,5.354l2.72,8.592
		c0.353,1.112-0.915,2.034-1.865,1.354l-7.332-5.241l-7.331,5.241c-0.95,0.678-2.215-0.242-1.865-1.354l2.72-8.592l-7.25-5.354
		c-0.938-0.695-0.455-2.181,0.712-2.191l9.012-0.069l2.851-8.55C360.23,268.623,361.796,268.623,362.165,269.729z"/>
	<path fill="#F5F5F5" d="M362.165,314.453l2.851,8.55l9.012,0.068c1.167,0.011,1.65,1.497,0.712,2.191l-7.25,5.354l2.72,8.593
		c0.353,1.111-0.915,2.033-1.865,1.354l-7.332-5.241l-7.331,5.241c-0.95,0.68-2.215-0.242-1.865-1.354l2.72-8.593l-7.25-5.354
		c-0.938-0.694-0.455-2.181,0.712-2.191l9.012-0.068l2.851-8.55C360.23,313.348,361.796,313.348,362.165,314.453z"/>
	<path fill="#F5F5F5" d="M396.88,158.354l2.851,8.55l9.013,0.069c1.167,0.01,1.65,1.498,0.712,2.191l-7.25,5.353l2.72,8.592
		c0.354,1.112-0.915,2.034-1.864,1.354l-7.332-5.241l-7.332,5.241c-0.95,0.68-2.215-0.242-1.864-1.354l2.719-8.592l-7.25-5.353
		c-0.938-0.695-0.455-2.183,0.712-2.191l9.012-0.069l2.851-8.55C394.945,157.247,396.51,157.247,396.88,158.354z"/>
	<path fill="#F5F5F5" d="M396.88,203.078l2.851,8.549l9.013,0.069c1.167,0.01,1.65,1.497,0.712,2.191l-7.25,5.354l2.72,8.592
		c0.354,1.112-0.915,2.034-1.864,1.354l-7.332-5.241l-7.332,5.241c-0.95,0.678-2.215-0.242-1.864-1.354l2.719-8.592l-7.25-5.354
		c-0.938-0.695-0.455-2.181,0.712-2.191l9.012-0.069l2.851-8.549C394.945,201.972,396.51,201.972,396.88,203.078z"/>
	<path fill="#F5F5F5" d="M396.88,247.803l2.851,8.55l9.013,0.068c1.167,0.01,1.65,1.497,0.712,2.191l-7.25,5.354l2.72,8.592
		c0.354,1.112-0.915,2.034-1.864,1.354l-7.332-5.241l-7.332,5.241c-0.95,0.678-2.215-0.241-1.864-1.354l2.719-8.592l-7.25-5.354
		c-0.938-0.694-0.455-2.181,0.712-2.191l9.012-0.068l2.851-8.55C394.945,246.695,396.51,246.695,396.88,247.803z"/>
	<path fill="#F5F5F5" d="M396.88,292.526l2.851,8.55l9.013,0.068c1.167,0.01,1.65,1.499,0.712,2.191l-7.25,5.354l2.72,8.592
		c0.354,1.112-0.915,2.034-1.864,1.354l-7.332-5.241l-7.332,5.241c-0.95,0.678-2.215-0.242-1.864-1.354l2.719-8.592l-7.25-5.354
		c-0.938-0.691-0.455-2.181,0.712-2.191l9.012-0.068l2.851-8.55C394.945,291.419,396.51,291.419,396.88,292.526z"/>
	<path fill="#F5F5F5" d="M396.88,337.25l2.851,8.55l9.013,0.068c1.167,0.011,1.65,1.497,0.712,2.191l-7.25,5.354l2.72,8.592
		c0.354,1.112-0.915,2.034-1.864,1.354l-7.332-5.241l-7.332,5.241c-0.95,0.678-2.215-0.242-1.864-1.354l2.719-8.592l-7.25-5.354
		c-0.938-0.694-0.455-2.181,0.712-2.191l9.012-0.068l2.851-8.55C394.945,336.145,396.51,336.145,396.88,337.25z"/>
</g>
</svg>
