<svg xmlns="http://www.w3.org/2000/svg" xmlns:xlink="http://www.w3.org/1999/xlink" width="70" height="69" viewBox="0 0 70 69"><defs><path id="qu1va" d="M988.774 339.463l-18.347-18.494c-1.903-1.919-1.903-5.058 0-6.976l10.223-10.304c.286-5.83 3.259-12.386 9.839-15.212l.001.006c-10.114 10.439-9.477 23.614 5.873 33.462 25.793 16.546 1.789 26.974-7.59 17.518zm28.794-10.94c6.253 20.245-17.93 33.605-33.744 13.462 18.656 13.53 35.58 1.85 33.744-13.463zm1.087-33.024l18.348 18.495c1.903 1.918 1.903 5.058-.002 6.976l-10.222 10.304c-.285 5.83-3.258 12.386-9.837 15.21 0 0-.002-.001-.002-.004 10.115-10.44 9.476-23.615-5.873-33.462-25.793-16.546-1.79-26.974 7.588-17.519zm-28.793 10.941c-6.254-20.245 17.93-33.606 33.743-13.462-18.655-13.53-35.579-1.85-33.743 13.462z"/><path id="qu1vc" d="M1018.492 285.692s-1.394 18.496-12.675 30.765c-11.91 12.952-36.807 19.327-36.807 19.327l48.333 31.212 40.66-51.634z"/><linearGradient id="qu1vd" x1="1014" x2="1013.01" y1="367" y2="285.69" gradientUnits="userSpaceOnUse"><stop offset="0" stop-color="#3567df"/><stop offset=".46" stop-color="#2390ef"/><stop offset="1" stop-color="#09d3ff"/></linearGradient><clipPath id="qu1vb"><use xlink:href="#qu1va"/></clipPath></defs><g><g transform="translate(-969 -283)"><g><g><use fill="#0096ff" xlink:href="#qu1va"/></g><g clip-path="url(#qu1vb)"><use fill="#ebf0f4" xlink:href="#qu1vc"/><use fill="url(#qu1vd)" xlink:href="#qu1vc"/></g></g></g></g></svg>