<svg xmlns="http://www.w3.org/2000/svg" xmlns:xlink="http://www.w3.org/1999/xlink" width="171" height="45" viewBox="0 0 171 45"><defs><path id="8ponb" d="M2307.991 1312.568l1.65-3.902c.74.502 1.4.868 1.98 1.1.58.231 1.122.347 1.625.347.354 0 .633-.065.836-.195.202-.13.304-.306.304-.528 0-.387-.507-.682-1.522-.885-.328-.07-.583-.124-.767-.161-1.074-.254-1.896-.705-2.465-1.352-.57-.647-.855-1.452-.855-2.417 0-1.497.554-2.714 1.66-3.653 1.106-.94 2.557-1.409 4.352-1.409a9.57 9.57 0 0 1 2.436.314c.799.21 1.604.527 2.416.951l-1.571 3.645a6.506 6.506 0 0 0-1.498-.813c-.501-.188-.988-.281-1.46-.281-.36 0-.637.059-.834.176-.196.117-.295.28-.295.49 0 .393.717.739 2.151 1.037.23.05.407.09.53.115.99.215 1.77.656 2.339 1.322.57.666.855 1.472.855 2.417 0 1.541-.575 2.8-1.724 3.777-1.15.977-2.644 1.466-4.485 1.466-.943 0-1.886-.13-2.828-.39-.944-.26-1.887-.65-2.83-1.17zm13.32 1.19v-14.75h4.863v4.073c0 .559-.007.993-.02 1.304-.013.311-.033.609-.059.895.425-.565.897-.985 1.414-1.261.518-.276 1.101-.414 1.75-.414 1.08 0 1.936.317 2.568.951.632.635.948 1.5.948 2.598v6.604h-4.95v-4.968c0-.494-.052-.832-.152-1.013-.103-.18-.282-.27-.536-.27-.29 0-.508.107-.659.322-.15.216-.225.537-.225.961v4.968zm18.99-3.55c.352 0 .64-.123.863-.371.222-.247.334-.571.334-.97 0-.407-.11-.731-.33-.976-.219-.244-.509-.366-.868-.366-.367 0-.66.122-.88.366-.22.245-.329.57-.329.976s.11.73.329.975c.22.244.513.366.88.366zm5.932-1.341a4.79 4.79 0 0 1-.492 2.122 5.426 5.426 0 0 1-1.404 1.78 5.613 5.613 0 0 1-1.822 1.012 6.875 6.875 0 0 1-2.215.348c-.793 0-1.53-.114-2.21-.343a5.676 5.676 0 0 1-1.837-1.018 5.195 5.195 0 0 1-1.4-1.766 4.833 4.833 0 0 1-.496-2.135c0-.75.165-1.461.496-2.136a5.306 5.306 0 0 1 1.4-1.765 5.67 5.67 0 0 1 1.837-1.02 6.915 6.915 0 0 1 2.21-.34c.791 0 1.53.114 2.215.346.684.231 1.298.57 1.842 1.014a5.22 5.22 0 0 1 1.384 1.76c.327.679.492 1.392.492 2.141zm7.643 1.417c.373 0 .677-.13.912-.394.236-.264.355-.611.355-1.043 0-.43-.12-.78-.355-1.046a1.16 1.16 0 0 0-.912-.4c-.38 0-.687.133-.92.4-.232.266-.348.615-.348 1.046 0 .432.116.78.349 1.043.232.263.538.394.919.394zm-5.973 7.717v-14.082h4.705v1.303c.433-.545.908-.951 1.43-1.218.52-.266 1.094-.399 1.723-.399 1.224 0 2.213.484 2.962 1.451.75.967 1.125 2.257 1.125 3.867 0 1.53-.386 2.776-1.154 3.74-.77.965-1.748 1.447-2.933 1.447a3.63 3.63 0 0 1-1.749-.424c-.523-.282-.985-.705-1.385-1.27.04.235.069.493.089.776.02.282.03.594.03.937V1318zm13.644-4.243v-9.839h4.705v1.38c.387-.584.812-1.012 1.277-1.285.465-.273.999-.409 1.601-.409.714 0 1.309.168 1.783.504.475.336.86.863 1.154 1.58.387-.685.86-1.205 1.42-1.556a3.457 3.457 0 0 1 1.881-.528c.995 0 1.79.319 2.382.956.594.638.889 1.496.889 2.574v6.623h-4.764v-4.948c0-.502-.047-.84-.142-1.018-.095-.178-.257-.267-.487-.267-.261 0-.457.105-.584.314-.128.21-.192.532-.192.97v4.949h-4.695v-4.948c0-.489-.048-.825-.143-1.009-.094-.184-.26-.276-.496-.276-.268 0-.466.105-.594.314-.127.21-.192.532-.192.97v4.949zm23.497-4.948c0 .419.116.756.349 1.013.232.257.538.385.918.385.386 0 .694-.126.923-.38.23-.254.344-.593.344-1.018 0-.431-.116-.777-.348-1.038-.233-.26-.54-.39-.92-.39-.379 0-.685.132-.917.395-.233.263-.35.608-.35 1.033zm2.691 4.948v-1.485c-.49.635-1.005 1.102-1.542 1.403a3.565 3.565 0 0 1-1.778.453c-1.179 0-2.156-.486-2.932-1.456-.776-.97-1.163-2.22-1.163-3.75 0-1.598.377-2.884 1.133-3.858.757-.973 1.744-1.46 2.962-1.46.629 0 1.2.131 1.714.395.514.263.99.67 1.43 1.222v-1.303h4.725v9.839zm6.631 0v-14.75h4.882v8.67l2.073-3.759h5.776l-3.606 4.729 3.802 5.11h-5.835l-2.21-3.683v3.683zm24.774-4.14l-7.005.01v.152c0 .501.095.874.281 1.118.187.244.47.367.849.367.23 0 .43-.065.6-.196.17-.13.304-.318.403-.565l4.566.295a4.697 4.697 0 0 1-2.062 2.464c-.975.577-2.17.866-3.586.866-.784 0-1.52-.116-2.204-.348a5.848 5.848 0 0 1-1.842-1.013 5.416 5.416 0 0 1-1.404-1.78 4.771 4.771 0 0 1-.492-2.12c0-.75.165-1.462.495-2.137a5.32 5.32 0 0 1 1.401-1.765 5.682 5.682 0 0 1 1.836-1.02 6.914 6.914 0 0 1 2.21-.34c1.088 0 2.064.21 2.929.632a5.709 5.709 0 0 1 2.16 1.84c.295.413.516.868.664 1.366.147.498.22 1.042.22 1.632 0 .153-.001.266-.004.342a3.059 3.059 0 0 1-.015.2zm-6.965-2.14l2.23.009c-.02-.387-.12-.672-.3-.856-.18-.184-.447-.277-.8-.277-.314 0-.568.097-.761.29-.193.194-.317.472-.369.834zm8.517 6.28v-9.839h4.784v1.38c.425-.565.901-.989 1.424-1.27a3.608 3.608 0 0 1 1.739-.424c.098 0 .172.001.22.005.05.002.094.007.133.014v4.776a4.35 4.35 0 0 0-.756-.323c-.23-.07-.439-.105-.628-.105-.63 0-1.115.166-1.459.495-.344.33-.516.793-.516 1.39v3.9zm-150.29 8.87l-11.522-11.668a3.152 3.152 0 0 1 0-4.402l6.42-6.501c.18-3.679 2.048-7.815 6.18-9.598l.002.004c-6.354 6.586-5.953 14.9 3.688 21.113 16.198 10.439 1.123 17.018-4.768 11.052zm18.085-6.903c3.927 12.774-11.261 21.203-21.193 8.495 11.717 8.536 22.345 1.167 21.193-8.495zm.684-20.836l11.522 11.67a3.15 3.15 0 0 1-.001 4.401l-6.42 6.501c-.18 3.68-2.047 7.815-6.179 9.598v-.004c6.352-6.586 5.95-14.899-3.69-21.112-16.199-10.44-1.123-17.019 4.768-11.054zm-18.085 6.904c-3.927-12.773 11.26-21.203 21.192-8.494-11.716-8.537-22.345-1.167-21.192 8.494z"/><path id="8pona" d="M2270.664 1322.298l-11.75-11.89a3.206 3.206 0 0 1 0-4.484l6.546-6.624c.184-3.749 2.088-7.962 6.303-9.78v.004c-6.477 6.712-6.069 15.182 3.762 21.512 16.519 10.637 1.146 17.34-4.86 11.262zm18.442-7.034c4.004 13.016-11.484 21.604-21.612 8.655 11.95 8.698 22.786 1.19 21.612-8.655zm.696-21.229l11.75 11.89a3.207 3.207 0 0 1 0 4.484l-6.547 6.624c-.183 3.749-2.087 7.962-6.3 9.778l-.001-.002c6.478-6.711 6.068-15.181-3.763-21.512-16.519-10.636-1.145-17.34 4.86-11.262zm-18.441 7.034c-4.005-13.015 11.483-21.604 21.611-8.655-11.948-8.698-22.787-1.19-21.611 8.655z"/><path id="8pond" d="M2289.697 1287.73s-.893 11.89-8.118 19.778c-7.627 8.326-23.573 12.425-23.573 12.425l30.954 20.065 26.041-33.194z"/><linearGradient id="8pone" x1="2287" x2="2286.01" y1="1340" y2="1287.73" gradientUnits="userSpaceOnUse"><stop offset="0" stop-color="#3567df"/><stop offset=".46" stop-color="#2390ef"/><stop offset="1" stop-color="#09d3ff"/></linearGradient><clipPath id="8ponc"><use xlink:href="#8pona"/></clipPath></defs><g><g transform="translate(-2258 -1286)"><g><use fill="#fff" xlink:href="#8ponb"/></g><g><g><use fill="#0096ff" xlink:href="#8pona"/></g><g clip-path="url(#8ponc)"><use fill="#ebf0f4" xlink:href="#8pond"/><use fill="url(#8pone)" xlink:href="#8pond"/></g></g></g></g></svg>