<svg xmlns="http://www.w3.org/2000/svg" width="171" height="43.53" viewBox="0 0 171 43.53">
  <metadata><?xpacket begin="﻿" id="W5M0MpCehiHzreSzNTczkc9d"?>
<x:xmpmeta xmlns:x="adobe:ns:meta/" x:xmptk="Adobe XMP Core 5.6-c140 79.160451, 2017/05/06-01:08:21        ">
   <rdf:RDF xmlns:rdf="http://www.w3.org/1999/02/22-rdf-syntax-ns#">
      <rdf:Description rdf:about=""/>
   </rdf:RDF>
</x:xmpmeta>
                                                                                                    
                                                                                                    
                                                                                                    
                                                                                                    
                                                                                                    
                                                                                                    
                                                                                                    
                                                                                                    
                                                                                                    
                                                                                                    
                                                                                                    
                                                                                                    
                                                                                                    
                                                                                                    
                                                                                                    
                                                                                                    
                                                                                                    
                                                                                                    
                                                                                                    
                                                                                                    
                           
<?xpacket end="w"?></metadata>
<defs>
    <style>
      .cls-1 {
        fill: #fff;
        fill-rule: evenodd;
      }
    </style>
  </defs>
  <path class="cls-1" d="M102.82,1360.74a10.6,10.6,0,0,0,2.829.39,6.675,6.675,0,0,0,4.485-1.47,4.708,4.708,0,0,0,1.723-3.77,3.579,3.579,0,0,0-.854-2.42,4.07,4.07,0,0,0-2.338-1.32q-0.186-.045-0.53-0.12c-1.435-.3-2.152-0.64-2.152-1.04a0.558,0.558,0,0,1,.3-0.49,1.724,1.724,0,0,1,.835-0.17,4.1,4.1,0,0,1,1.459.28,6.819,6.819,0,0,1,1.5.81l1.571-3.64a11.263,11.263,0,0,0-2.416-.95,9.549,9.549,0,0,0-2.436-.32,6.492,6.492,0,0,0-4.352,1.41,4.576,4.576,0,0,0-1.66,3.66,3.5,3.5,0,0,0,.855,2.41,4.529,4.529,0,0,0,2.465,1.35c0.183,0.04.439,0.1,0.766,0.17,1.015,0.2,1.523.49,1.523,0.88a0.605,0.605,0,0,1-.3.53,1.538,1.538,0,0,1-.834.19,4.407,4.407,0,0,1-1.626-.34,11.373,11.373,0,0,1-1.98-1.1l-1.65,3.9A13.034,13.034,0,0,0,102.82,1360.74Zm15.432,0.02v-4.97a1.7,1.7,0,0,1,.226-0.96,0.74,0.74,0,0,1,.658-0.32,0.563,0.563,0,0,1,.536.27,2.3,2.3,0,0,1,.152,1.01v4.97h4.951v-6.61a3.5,3.5,0,0,0-.948-2.59,3.446,3.446,0,0,0-2.569-.96,3.612,3.612,0,0,0-1.748.42,4.238,4.238,0,0,0-1.415,1.26c0.026-.29.046-0.58,0.059-0.9s0.02-.74.02-1.3v-4.07h-4.863v14.75h4.941Zm13.168-3.92a1.4,1.4,0,0,1-.329-0.97,1.422,1.422,0,0,1,.329-0.98,1.135,1.135,0,0,1,.879-0.36,1.123,1.123,0,0,1,.87.36,1.422,1.422,0,0,1,.329.98,1.4,1.4,0,0,1-.334.97,1.135,1.135,0,0,1-.865.37A1.109,1.109,0,0,1,131.42,1356.84Zm6.321-3.11a5.145,5.145,0,0,0-1.385-1.76,5.711,5.711,0,0,0-1.841-1.02,7.171,7.171,0,0,0-4.426,0,5.734,5.734,0,0,0-1.837,1.02,5.246,5.246,0,0,0-1.4,1.76,4.834,4.834,0,0,0,0,4.27,5.281,5.281,0,0,0,1.4,1.77,5.734,5.734,0,0,0,1.837,1.02,7.152,7.152,0,0,0,2.21.34,6.917,6.917,0,0,0,2.216-.35,5.658,5.658,0,0,0,1.822-1.01,5.508,5.508,0,0,0,1.4-1.78,4.771,4.771,0,0,0,.492-2.12A4.824,4.824,0,0,0,137.741,1353.73Zm7.216,3.16a1.506,1.506,0,0,1-.349-1.04,1.55,1.55,0,0,1,.349-1.05,1.249,1.249,0,0,1,1.832,0,1.542,1.542,0,0,1,.353,1.05,1.5,1.5,0,0,1-.353,1.04A1.271,1.271,0,0,1,144.957,1356.89Zm-0.212,8.11v-3.87c0-.34-0.009-0.66-0.029-0.94s-0.049-.54-0.089-0.77a4.212,4.212,0,0,0,1.386,1.27,3.645,3.645,0,0,0,1.748.42,3.581,3.581,0,0,0,2.932-1.45,5.8,5.8,0,0,0,1.154-3.74,6.116,6.116,0,0,0-1.124-3.86,3.568,3.568,0,0,0-2.962-1.46,3.811,3.811,0,0,0-1.724.4,4.514,4.514,0,0,0-1.429,1.22v-1.3H139.9V1365h4.842Zm13.6-4.24v-4.95a1.9,1.9,0,0,1,.192-0.97,0.643,0.643,0,0,1,.594-0.31,0.513,0.513,0,0,1,.5.27,2.465,2.465,0,0,1,.143,1.01v4.95h4.695v-4.95a1.9,1.9,0,0,1,.192-0.97,0.632,0.632,0,0,1,.584-0.31,0.5,0.5,0,0,1,.486.26,2.457,2.457,0,0,1,.143,1.02v4.95h4.764v-6.63a3.637,3.637,0,0,0-.889-2.57,3.091,3.091,0,0,0-2.382-.96,3.48,3.48,0,0,0-1.881.53,4.215,4.215,0,0,0-1.42,1.56,3.5,3.5,0,0,0-1.154-1.58,2.985,2.985,0,0,0-1.783-.51,3.133,3.133,0,0,0-1.6.41,4.038,4.038,0,0,0-1.277,1.29v-1.38h-4.705v9.84h4.8Zm19.043-5.98a1.147,1.147,0,0,1,.918-0.4,1.171,1.171,0,0,1,.918.39,1.506,1.506,0,0,1,.349,1.04,1.482,1.482,0,0,1-.344,1.02,1.2,1.2,0,0,1-.923.38,1.171,1.171,0,0,1-.918-0.39,1.428,1.428,0,0,1-.349-1.01A1.479,1.479,0,0,1,177.393,1354.78Zm6.89,5.98v-9.84h-4.724v1.3a4.412,4.412,0,0,0-1.43-1.22,3.747,3.747,0,0,0-1.714-.4,3.569,3.569,0,0,0-2.962,1.47,6.1,6.1,0,0,0-1.134,3.85,5.817,5.817,0,0,0,1.164,3.75,3.7,3.7,0,0,0,4.71,1.01,5.189,5.189,0,0,0,1.542-1.41v1.49h4.548Zm6.965,0v-3.68l2.21,3.68h5.835l-3.8-5.11,3.605-4.73h-5.776l-2.073,3.76v-8.67h-4.882v14.75h4.882Zm19.907-4.34c0-.08,0-0.19,0-0.34a5.776,5.776,0,0,0-.222-1.64,4.571,4.571,0,0,0-.663-1.36,5.635,5.635,0,0,0-2.161-1.84,6.614,6.614,0,0,0-2.927-.64,6.866,6.866,0,0,0-2.21.35,5.723,5.723,0,0,0-1.837,1.02,5.249,5.249,0,0,0-1.4,1.76,4.843,4.843,0,0,0,0,4.26,5.525,5.525,0,0,0,1.4,1.78,5.875,5.875,0,0,0,1.842,1.01,7.545,7.545,0,0,0,5.79-.52,4.681,4.681,0,0,0,2.063-2.46l-4.567-.3a1.3,1.3,0,0,1-.4.57,0.957,0.957,0,0,1-.6.19,1.01,1.01,0,0,1-.85-0.36,1.852,1.852,0,0,1-.28-1.12v-0.15l7-.01C211.146,1356.56,211.151,1356.49,211.155,1356.42Zm-6.611-2.78a1.042,1.042,0,0,1,.761-0.29,1.092,1.092,0,0,1,.8.28,1.28,1.28,0,0,1,.3.86l-2.23-.01A1.479,1.479,0,0,1,204.544,1353.64Zm13.089,7.12v-3.9a1.83,1.83,0,0,1,.516-1.39,2.022,2.022,0,0,1,1.458-.5,2.188,2.188,0,0,1,.629.11,4.022,4.022,0,0,1,.756.32v-4.78c-0.039,0-.083-0.01-0.132-0.01s-0.123-.01-0.221-0.01a3.639,3.639,0,0,0-1.739.43,4.342,4.342,0,0,0-1.424,1.27v-1.38h-4.784v9.84h4.941ZM67.17,1358.58c-9.641-6.22-10.041-14.53-3.689-21.12h0c-4.133,1.78-6,5.92-6.18,9.6l-6.42,6.5a3.148,3.148,0,0,0,0,4.4L62.4,1369.63C68.293,1375.59,83.368,1369.01,67.17,1358.58Zm13.318,4.15c3.926,12.77-11.261,21.2-21.193,8.49C71.012,1379.76,81.639,1372.39,80.488,1362.73Zm-4.084-9.79c9.64,6.22,10.041,14.53,3.689,21.12h0c4.132-1.78,6-5.92,6.179-9.6l6.42-6.5a3.148,3.148,0,0,0,0-4.4L81.17,1341.89C75.28,1335.92,60.2,1342.5,76.4,1352.94Zm-13.317-4.15c-3.927-12.77,11.261-21.2,21.192-8.49C72.562,1331.76,61.934,1339.13,63.086,1348.79Z" transform="translate(-50 -1334)"/>
</svg>
