<?xml version="1.0" encoding="utf-8"?>
<!-- Generator: Adobe Illustrator 16.0.4, SVG Export Plug-In . SVG Version: 6.00 Build 0)  -->
<!DOCTYPE svg PUBLIC "-//W3C//DTD SVG 1.1//EN" "http://www.w3.org/Graphics/SVG/1.1/DTD/svg11.dtd">
<svg version="1.1" id="Layer_1" xmlns="http://www.w3.org/2000/svg" xmlns:xlink="http://www.w3.org/1999/xlink" x="0px" y="0px"
	 width="225px" height="46px" viewBox="0 0 225 46" enable-background="new 0 0 225 46" xml:space="preserve">
<g>
	
		<linearGradient id="SVGID_1_" gradientUnits="userSpaceOnUse" x1="-218.8169" y1="22.4951" x2="-206.5847" y2="22.4951" gradientTransform="matrix(2.9194 0 0 -2.9194 638.8146 100.2238)">
		<stop  offset="0.0611" style="stop-color:#00348B"/>
		<stop  offset="0.1509" style="stop-color:#0F53AD"/>
		<stop  offset="0.261" style="stop-color:#1F73D0"/>
		<stop  offset="0.3649" style="stop-color:#2B89E9"/>
		<stop  offset="0.4591" style="stop-color:#3297F9"/>
		<stop  offset="0.535" style="stop-color:#349CFE"/>
		<stop  offset="0.6854" style="stop-color:#7ABFFF"/>
		<stop  offset="0.7981" style="stop-color:#A7D5FF"/>
		<stop  offset="0.8545" style="stop-color:#B9DEFF"/>
	</linearGradient>
	<polygon fill="url(#SVGID_1_)" points="35.762,33.036 31.695,31.991 31.695,31.991 17.829,23.105 17.621,23.209 17.621,28.02 
		17.829,28.227 27.734,34.5 17.829,40.877 4.066,31.991 0,34.396 0,34.5 17.829,46 31.695,37.114 31.695,37.114 35.762,34.604 
		35.762,34.604 35.658,34.5 35.762,34.5 	"/>
	
		<linearGradient id="SVGID_2_" gradientUnits="userSpaceOnUse" x1="-218.8169" y1="31.8232" x2="-206.5847" y2="31.8232" gradientTransform="matrix(2.9194 0 0 -2.9194 638.8146 100.2238)">
		<stop  offset="0.1051" style="stop-color:#00348B"/>
		<stop  offset="0.1715" style="stop-color:#0F53AD"/>
		<stop  offset="0.2528" style="stop-color:#1F73D0"/>
		<stop  offset="0.3296" style="stop-color:#2B89E9"/>
		<stop  offset="0.3992" style="stop-color:#3297F9"/>
		<stop  offset="0.4552" style="stop-color:#349CFE"/>
		<stop  offset="0.5423" style="stop-color:#49A6FE"/>
		<stop  offset="0.7212" style="stop-color:#7FC1FF"/>
		<stop  offset="0.8945" style="stop-color:#B9DEFF"/>
	</linearGradient>
	<polygon fill="url(#SVGID_2_)" points="35.762,11.5 17.829,0 0,11.5 0,11.918 3.962,14.637 3.962,14.114 17.829,5.123 
		31.695,14.114 31.695,14.428 32.113,14.532 35.762,12.336 	"/>
	<polygon fill="#BBDEFF" points="17.829,23.105 0,11.5 0,12.754 0,16.729 0,34.5 3.962,31.991 3.962,19.236 17.829,28.227 
		31.695,19.236 31.695,31.991 35.762,34.5 35.762,16.729 35.762,15.368 35.762,11.5 	"/>
</g>
<g>
	<path fill="#1B212B" d="M49.629,25.405c1.146,0.836,2.605,1.254,3.753,1.254c1.459,0,2.606-0.732,2.606-2.091
		c0-1.674-1.459-1.883-3.129-2.405c-1.771-0.522-3.545-1.254-3.545-3.554c0-2.195,1.668-3.555,4.066-3.555
		c1.146,0,2.605,0.312,3.648,0.94v1.776c-1.146-0.836-2.605-1.149-3.648-1.149c-1.459,0-2.398,0.627-2.398,1.882
		c0,1.568,1.459,1.882,3.023,2.301c1.876,0.522,3.648,1.254,3.648,3.658c0,2.301-1.668,3.659-4.17,3.659
		c-1.25,0-2.709-0.313-3.752-0.94v-1.776H49.629z"/>
	<path fill="#1B212B" d="M68.396,15.368h1.668V20.7h6.881v-5.332h1.668v12.649h-1.668v-5.854h-6.881v5.854h-1.668V15.368z"/>
	<path fill="#1B212B" d="M95.818,15.159c3.648,0,6.359,2.823,6.359,6.481s-2.71,6.481-6.359,6.481c-3.65,0-6.36-2.823-6.36-6.481
		C89.354,18.086,92.168,15.159,95.818,15.159z M95.818,26.659c2.711,0,4.795-2.195,4.795-5.019c0-2.822-2.084-4.914-4.795-4.914
		s-4.797,2.195-4.797,5.019S93.003,26.659,95.818,26.659z"/>
	<path fill="#1B212B" d="M113.021,15.368h3.336c1.354,0,2.605,0,3.754,0.627c1.146,0.627,1.877,1.673,1.877,3.137
		c0,1.463-0.73,2.509-1.668,3.136c-1.147,0.627-2.607,0.731-4.172,0.731h-1.459v5.019h-1.668V15.368L113.021,15.368z
		 M116.148,21.643c1.459,0,2.295,0,3.023-0.523c0.626-0.419,1.043-1.046,1.043-1.883c0-0.94-0.417-1.567-1.146-1.985
		s-1.668-0.418-2.92-0.418h-1.459v4.705L116.148,21.643L116.148,21.643z"/>
	<path fill="#1B212B" d="M134.083,23L134.083,23c0,0.73,0,5.02,0,5.02h-1.563V18.4l6.047,6.69l6.048-6.69v9.617h-1.669
		c0,0,0-4.183,0-5.019l0,0c-0.521,0.836-4.482,4.81-4.482,4.81S134.708,23.836,134.083,23z"/>
	<path fill="#1B212B" d="M160.044,15.368h1.563l5.213,12.649h-1.771l-1.46-3.555h-5.63l-1.46,3.555h-1.668L160.044,15.368z
		 M158.584,23.105h4.482l-1.041-2.614c-0.418-1.046-0.834-2.091-1.252-3.136l0,0c-0.418,1.045-0.834,2.09-1.252,3.136
		L158.584,23.105z"/>
	<path fill="#1B212B" d="M177.039,15.368h1.668v5.75l0,0l5.525-5.75h2.086l-5.631,5.854l6.151,6.795h-2.188l-5.84-6.481l0,0v6.481
		h-1.668L177.039,15.368L177.039,15.368z"/>
	<path fill="#1B212B" d="M196.641,15.368h7.299v1.464h-5.631V20.7h4.9v1.464h-4.9v4.391h5.734v1.465h-7.402V15.368z"/>
	<path fill="#51ABFE" d="M142.109,15.368l-3.545,3.868l-3.439-3.868h-2.605c0.207,0.313,6.047,6.586,6.047,6.586
		s5.942-6.377,6.047-6.586H142.109z"/>
	<g enable-background="new    ">
		<path fill="#1B212B" d="M217.598,28.02h-1.563V15.684h4.69c2.398,0,3.964,1.463,3.964,3.658c0,1.672-0.938,3.032-2.504,3.555
			L225,28.02h-1.771l-2.606-4.914h-3.023L217.598,28.02L217.598,28.02z M217.598,21.746h3.023c1.562,0,2.502-0.836,2.502-2.404
			c0-1.464-0.938-2.404-2.502-2.404h-2.92v4.81L217.598,21.746L217.598,21.746z"/>
	</g>
</g>
</svg>
